<?xml version="1.0" encoding="UTF-8" standalone="no"?>
<!DOCTYPE svg PUBLIC "-//W3C//DTD SVG 1.1//EN" "http://www.w3.org/Graphics/SVG/1.1/DTD/svg11.dtd">
<svg width="100%" height="100%" viewBox="0 0 1280 1024" version="1.1" xmlns="http://www.w3.org/2000/svg" xmlns:xlink="http://www.w3.org/1999/xlink" xml:space="preserve" xmlns:serif="http://www.serif.com/" style="fill-rule:evenodd;clip-rule:evenodd;stroke-linejoin:round;stroke-miterlimit:2;">
    <g id="Ebene-1" serif:id="Ebene 1">
        <g transform="matrix(1,0,0,1,439.8,614.165)">
            <path d="M8.611,-101.428L-29.663,-101.428L-29.663,0L8.611,0L8.611,-101.428Z" style="fill:rgb(188,43,11);fill-rule:nonzero;"/>
        </g>
        <g transform="matrix(1,0,0,1,229.267,614.165)">
            <path d="M8.612,-101.428L-29.661,-101.428L-29.661,-50.714C-29.661,-41.704 -27.359,-33.168 -22.817,-25.339C-18.243,-17.459 -12.191,-11.414 -4.323,-6.852C3.506,-2.297 12.042,0 21.06,0L155.988,0L155.988,-38.272L21.06,-38.272C18.917,-38.272 16.863,-38.856 14.959,-39.991C13.017,-41.162 11.5,-42.671 10.332,-44.621C9.188,-46.519 8.612,-48.573 8.612,-50.714L8.612,-101.428Z" style="fill:rgb(177,177,177);fill-rule:nonzero;"/>
        </g>
        <g transform="matrix(1,0,0,1,650.332,614.165)">
            <path d="M8.611,-101.428L-52.638,-101.428C-61.566,-101.428 -70.009,-99.209 -77.724,-94.839C-85.446,-90.351 -91.667,-84.064 -96.294,-76.089C-100.965,-68.231 -103.354,-59.669 -103.354,-50.714C-103.354,-48.3 -103.846,-46.315 -104.864,-44.621C-105.939,-42.827 -107.563,-41.279 -109.698,-39.991C-111.602,-38.856 -113.658,-38.272 -115.799,-38.272L-177.041,-38.272L-177.041,0L-115.799,0C-101.832,0 -89.796,-4.951 -80.021,-14.727C-70.109,-24.651 -65.08,-36.75 -65.08,-50.714C-65.08,-52.855 -64.503,-54.912 -63.357,-56.81C-62.186,-58.757 -60.467,-60.483 -58.527,-61.641C-56.778,-62.689 -54.961,-63.157 -52.638,-63.157L8.611,-63.157L8.611,-101.428Z" style="fill:rgb(177,177,177);fill-rule:nonzero;"/>
        </g>
        <g transform="matrix(1,0,0,1,864.16,614.165)">
            <path d="M8.611,-101.428L-177.036,-101.428L-177.036,-63.157L-103.361,-63.157L-103.361,0L-65.077,0L-65.077,-63.157L8.611,-63.157L8.611,-101.428Z" style="fill:rgb(177,177,177);fill-rule:nonzero;"/>
        </g>
        <g transform="matrix(1,0,0,1,938.977,552.728)">
            <path d="M0,21.446C-1.953,20.275 -3.459,18.766 -4.633,16.816C-5.782,14.918 -6.353,12.864 -6.353,10.723C-6.353,8.582 -5.782,6.525 -4.633,4.627C-3.349,2.489 -1.791,0.86 0,-0.204C1.667,-1.217 3.725,-1.719 6.093,-1.719L90.299,-1.719C91.805,-1.719 93.479,-1.359 95.425,-0.607C96.86,-0.061 97.982,0.685 99.157,1.859C100.337,3.037 101.071,4.163 101.635,5.607C102.382,7.543 102.745,9.221 102.745,10.723C102.745,13.137 102.245,15.123 101.227,16.816C100.169,18.61 98.534,20.158 96.392,21.446C94.491,22.582 92.441,23.166 90.299,23.166L6.093,23.166C3.958,23.166 1.901,22.582 0,21.446M6.093,-39.991C-7.865,-39.991 -19.973,-34.972 -29.895,-25.05C-39.667,-15.275 -44.618,-3.238 -44.618,10.723C-44.618,19.746 -42.327,28.282 -37.778,36.098C-33.204,43.966 -27.163,50.023 -19.279,54.585C-11.466,59.14 -2.914,61.437 6.093,61.437L90.299,61.437C104.263,61.437 116.294,56.486 126.066,46.711C135.988,36.786 141.023,24.687 141.023,10.723C141.023,1.713 138.719,-6.823 134.177,-14.652C129.602,-22.523 123.555,-28.567 115.677,-33.148C107.858,-37.697 99.325,-39.991 90.299,-39.991L6.093,-39.991Z" style="fill:rgb(177,177,177);fill-rule:nonzero;"/>
        </g>
        <g transform="matrix(1,0,0,1,415.71,639.015)">
            <path d="M0,32.777C-2.365,32.777 -4.635,32.446 -6.385,31.974L-6.195,28.426C-4.351,29.088 -1.892,29.609 0.331,29.609C4.447,29.609 7.898,27.953 7.898,23.602C7.898,16.034 -6.904,18.92 -6.904,8.846C-6.904,3.785 -2.837,0 4.163,0C6.15,0 7.994,0.237 9.886,0.615L9.696,3.879C7.898,3.36 5.77,3.027 3.926,3.027C-0.709,3.027 -3.168,5.204 -3.168,8.466C-3.168,15.797 11.636,13.15 11.636,23.13C11.636,28.757 7.237,32.777 0,32.777" style="fill:rgb(188,43,11);fill-rule:nonzero;"/>
        </g>
        <g transform="matrix(1,0,0,1,0,286.809)">
            <rect x="442.859" y="352.633" width="3.642" height="31.925" style="fill:rgb(188,43,11);"/>
        </g>
        <g transform="matrix(1,0,0,1,463.622,639.442)">
            <path d="M0,31.925L0,0L3.642,0L3.642,28.851L15.466,28.851L15.466,31.925L0,31.925Z" style="fill:rgb(188,43,11);fill-rule:nonzero;"/>
        </g>
        <g transform="matrix(1,0,0,1,0,286.809)">
            <rect x="492.236" y="352.633" width="3.642" height="31.925" style="fill:rgb(188,43,11);"/>
        </g>
        <g transform="matrix(1,0,0,1,530.216,639.442)">
            <path d="M0,31.925L-13.575,15.891L-13.575,31.925L-17.217,31.925L-17.217,0L-13.575,0L-13.575,15.276L0.047,0L4.541,0L-9.649,15.466L5.013,31.925L0,31.925Z" style="fill:rgb(188,43,11);fill-rule:nonzero;"/>
        </g>
        <g transform="matrix(1,0,0,1,561.243,668.669)">
            <path d="M0,-26.531C-5.629,-26.531 -10.642,-21.943 -10.642,-13.573C-10.642,-5.578 -7.19,-0.045 0,-0.045C5.58,-0.045 10.687,-4.585 10.687,-13.052C10.687,-21.612 6.765,-26.531 0,-26.531M-0.378,3.123C-9.933,3.123 -14.521,-3.262 -14.521,-12.909C-14.521,-23.647 -7.758,-29.654 0.472,-29.654C9.126,-29.654 14.567,-23.883 14.567,-13.62C14.567,-2.931 7.803,3.123 -0.378,3.123" style="fill:rgb(188,43,11);fill-rule:nonzero;"/>
        </g>
        <g transform="matrix(1,0,0,1,610.951,639.442)">
            <path d="M0,31.925L-13.289,10.736C-14.71,8.419 -15.891,6.291 -16.933,4.209C-16.79,7.851 -16.648,16.601 -16.648,22.135L-16.648,31.925L-20.197,31.925L-20.197,0L-15.372,0L-2.317,20.716C-0.944,22.938 0.379,25.303 1.609,27.526C1.418,23.269 1.278,14.567 1.278,8.75L1.278,0L4.824,0L4.824,31.925L0,31.925Z" style="fill:rgb(188,43,11);fill-rule:nonzero;"/>
        </g>
        <g transform="matrix(1,0,0,1,0,295.181)">
            <rect x="630.862" y="362.991" width="10.976" height="2.837" style="fill:rgb(188,43,11);"/>
        </g>
        <g transform="matrix(1,0,0,1,663.64,654.576)">
            <path d="M0,1.656C-0.568,1.656 -2.317,1.656 -3.076,1.703L-3.076,13.717C-2.223,13.859 -0.805,14.001 1.275,14.001C6.904,14.001 9.363,11.211 9.363,7.473C9.363,2.98 5.249,1.656 0,1.656M1.512,-12.344C-0.049,-12.344 -1.703,-12.297 -3.076,-12.249L-3.076,-1.134C-2.083,-1.087 -1.278,-1.087 -0.049,-1.087C5.629,-1.087 8.607,-3.309 8.607,-7.094C8.607,-10.121 7.141,-12.344 1.512,-12.344M0.993,16.933C-0.948,16.933 -3.974,16.838 -6.716,16.791L-6.716,-15.134C-4.542,-15.181 -1.655,-15.277 2.174,-15.277C9.126,-15.277 12.391,-12.344 12.391,-7.709C12.391,-4.208 9.98,-1.181 6.385,-0.141L6.385,-0.046C11.115,0.663 13.146,3.974 13.146,7.379C13.146,10.831 11.067,16.933 0.993,16.933" style="fill:rgb(188,43,11);fill-rule:nonzero;"/>
        </g>
        <g transform="matrix(1,0,0,1,692.208,639.442)">
            <path d="M0,31.925L0,0L16.079,0L16.079,2.933L3.64,2.933L3.64,13.999L15.466,13.999L15.466,16.932L3.64,16.932L3.64,28.898L16.079,28.898L16.079,31.925L0,31.925Z" style="fill:rgb(188,43,11);fill-rule:nonzero;"/>
        </g>
        <g transform="matrix(1,0,0,1,729.808,639.015)">
            <path d="M0,32.777C-2.365,32.777 -4.633,32.446 -6.385,31.974L-6.197,28.426C-4.351,29.088 -1.892,29.609 0.331,29.609C4.445,29.609 7.9,27.953 7.9,23.602C7.9,16.034 -6.904,18.92 -6.904,8.846C-6.904,3.785 -2.839,0 4.163,0C6.148,0 7.994,0.237 9.886,0.615L9.698,3.879C7.9,3.36 5.772,3.027 3.926,3.027C-0.711,3.027 -3.17,5.204 -3.17,8.466C-3.17,15.797 11.634,13.15 11.634,23.13C11.634,28.757 7.238,32.777 0,32.777" style="fill:rgb(188,43,11);fill-rule:nonzero;"/>
        </g>
        <g transform="matrix(1,0,0,1,769.396,639.159)">
            <path d="M0,32.587C-9.886,32.587 -14.425,26.439 -14.425,16.979C-14.425,7.378 -9.792,0 1.087,0C3.546,0 6.099,0.377 8.465,0.945L8.089,4.303C5.438,3.499 2.978,3.074 0.474,3.074C-7.284,3.074 -10.499,9.128 -10.499,16.412C-10.499,24.641 -6.859,29.372 0.944,29.372C3.403,29.372 6.479,28.661 8.465,27.668L8.844,30.885C6.385,31.925 3.309,32.587 0,32.587" style="fill:rgb(188,43,11);fill-rule:nonzero;"/>
        </g>
        <g transform="matrix(1,0,0,1,814.374,639.442)">
            <path d="M0,31.925L0,16.884L-17.358,16.884L-17.358,31.925L-20.998,31.925L-20.998,0L-17.358,0L-17.358,13.857L0,13.857L0,0L3.595,0L3.595,31.925L0,31.925Z" style="fill:rgb(188,43,11);fill-rule:nonzero;"/>
        </g>
        <g transform="matrix(1,0,0,1,0,286.809)">
            <rect x="835.093" y="352.633" width="3.64" height="31.925" style="fill:rgb(188,43,11);"/>
        </g>
        <g transform="matrix(1,0,0,1,868.294,639.159)">
            <path d="M0,32.587C-9.886,32.587 -14.425,26.439 -14.425,16.979C-14.425,7.378 -9.792,0 1.087,0C3.546,0 6.103,0.377 8.468,0.945L8.088,4.303C5.441,3.499 2.978,3.074 0.473,3.074C-7.284,3.074 -10.499,9.128 -10.499,16.412C-10.499,24.641 -6.859,29.372 0.947,29.372C3.407,29.372 6.479,28.661 8.468,27.668L8.844,30.885C6.385,31.925 3.312,32.587 0,32.587" style="fill:rgb(188,43,11);fill-rule:nonzero;"/>
        </g>
        <g transform="matrix(1,0,0,1,913.274,639.442)">
            <path d="M0,31.925L0,16.884L-17.358,16.884L-17.358,31.925L-21.001,31.925L-21.001,0L-17.358,0L-17.358,13.857L0,13.857L0,0L3.595,0L3.595,31.925L0,31.925Z" style="fill:rgb(188,43,11);fill-rule:nonzero;"/>
        </g>
        <g transform="matrix(1,0,0,1,943.733,668.34)">
            <path d="M0,-25.871L0,3.027L-3.595,3.027L-3.595,-25.871L-13.15,-25.871L-13.15,-28.898L9.6,-28.898L9.6,-25.871L0,-25.871Z" style="fill:rgb(188,43,11);fill-rule:nonzero;"/>
        </g>
        <g transform="matrix(1,0,0,1,978.829,639.442)">
            <path d="M0,32.35C-9.886,32.35 -11.777,26.817 -11.777,21.33L-11.777,0L-8.137,0L-8.137,20.999C-8.137,25.587 -6.622,29.372 0.282,29.372C6.148,29.372 9.032,26.911 9.032,20.101L9.032,0L12.579,0L12.579,19.817C12.579,27.999 8.277,32.35 0,32.35" style="fill:rgb(188,43,11);fill-rule:nonzero;"/>
        </g>
        <g transform="matrix(1,0,0,1,1028.72,639.442)">
            <path d="M0,31.925L-13.289,10.736C-14.707,8.419 -15.891,6.291 -16.933,4.209C-16.79,7.851 -16.647,16.601 -16.647,22.135L-16.647,31.925L-20.193,31.925L-20.193,0L-15.372,0L-2.316,20.716C-0.944,22.938 0.38,25.303 1.609,27.526C1.421,23.269 1.278,14.567 1.278,8.75L1.278,0L4.825,0L4.825,31.925L0,31.925Z" style="fill:rgb(188,43,11);fill-rule:nonzero;"/>
        </g>
        <g transform="matrix(1,0,0,1,1073.66,667.015)">
            <path d="M0,-23.222C-2.696,-24.309 -5.674,-24.924 -8.513,-24.924C-15.229,-24.924 -21.283,-20.573 -21.283,-11.492C-21.283,-3.073 -16.267,1.656 -8.795,1.656C-6.479,1.656 -4.493,1.326 -2.599,0.711L-2.599,-11.728L1.042,-11.728L1.042,2.98C-2.174,4.163 -6.005,4.777 -9.363,4.777C-18.824,4.777 -25.115,-1.087 -25.115,-11.02C-25.115,-20.716 -18.73,-27.999 -8.134,-27.999C-5.155,-27.999 -2.316,-27.526 0.568,-26.627L0,-23.222Z" style="fill:rgb(188,43,11);fill-rule:nonzero;"/>
        </g>
        <g transform="matrix(104.757,0,0,-104.757,461.023,417.354)">
            <path d="M0.862,0.252C0.834,0.219 0.764,0.14 0.725,0.093C0.688,0.048 0.627,-0.017 0.571,-0.079C0.552,-0.1 0.481,-0.176 0.481,-0.176C0.481,-0.176 0.553,-0.119 0.632,-0.045C0.693,0.013 0.747,0.065 0.843,0.196C0.873,0.237 0.949,0.34 0.946,0.335C0.936,0.318 1,0.415 1,0.415C1,0.415 0.887,0.28 0.862,0.252ZM0.837,0.279C0.803,0.237 0.712,0.131 0.694,0.108C0.675,0.086 0.602,0.003 0.567,-0.037C0.532,-0.077 0.442,-0.175 0.442,-0.175C0.442,-0.175 0.522,-0.109 0.587,-0.044C0.616,-0.015 0.67,0.038 0.704,0.079C0.737,0.12 0.822,0.236 0.842,0.263C0.861,0.289 0.935,0.395 0.935,0.395C0.935,0.395 0.872,0.322 0.837,0.279ZM0.787,0.269C0.759,0.237 0.679,0.139 0.655,0.11C0.631,0.081 0.547,-0.017 0.521,-0.047C0.495,-0.076 0.402,-0.18 0.402,-0.18C0.402,-0.18 0.482,-0.114 0.54,-0.054C0.563,-0.029 0.599,0.008 0.632,0.045C0.665,0.083 0.749,0.199 0.774,0.233C0.8,0.268 0.872,0.374 0.872,0.374C0.872,0.374 0.815,0.301 0.787,0.269ZM0.636,0.132C0.606,0.094 0.513,-0.019 0.476,-0.063C0.439,-0.107 0.364,-0.185 0.364,-0.185C0.364,-0.185 0.392,-0.174 0.495,-0.066C0.53,-0.03 0.578,0.026 0.599,0.053C0.62,0.08 0.703,0.192 0.723,0.22C0.743,0.248 0.811,0.347 0.811,0.347C0.811,0.347 0.667,0.17 0.636,0.132ZM0.683,0.231C0.667,0.21 0.578,0.101 0.554,0.07C0.53,0.04 0.437,-0.07 0.41,-0.104C0.383,-0.137 0.326,-0.197 0.326,-0.197C0.326,-0.197 0.338,-0.193 0.371,-0.167C0.404,-0.14 0.439,-0.1 0.458,-0.077C0.477,-0.055 0.534,0.016 0.553,0.04C0.572,0.064 0.631,0.146 0.653,0.176C0.675,0.206 0.751,0.316 0.751,0.316C0.751,0.316 0.7,0.252 0.683,0.231ZM0.646,0.224C0.608,0.176 0.544,0.097 0.522,0.068C0.501,0.038 0.41,-0.071 0.384,-0.104C0.358,-0.136 0.29,-0.209 0.29,-0.209C0.326,-0.193 0.387,-0.127 0.415,-0.093C0.433,-0.071 0.491,-0.001 0.508,0.023C0.525,0.046 0.59,0.133 0.606,0.157C0.623,0.18 0.693,0.282 0.693,0.284C0.693,0.284 0.693,0.284 0.693,0.284C0.692,0.284 0.68,0.268 0.646,0.224ZM0.49,0.058C0.46,0.022 0.391,-0.068 0.361,-0.104C0.332,-0.139 0.256,-0.221 0.256,-0.221C0.291,-0.207 0.354,-0.133 0.37,-0.115C0.387,-0.096 0.468,0.008 0.484,0.029C0.5,0.049 0.552,0.123 0.569,0.148C0.586,0.174 0.636,0.247 0.636,0.247C0.636,0.247 0.519,0.094 0.49,0.058ZM0.479,0.076C0.46,0.05 0.381,-0.049 0.341,-0.102C0.3,-0.155 0.222,-0.239 0.222,-0.239C0.234,-0.236 0.268,-0.2 0.292,-0.176C0.316,-0.153 0.395,-0.056 0.412,-0.032C0.43,-0.008 0.477,0.058 0.496,0.084C0.515,0.11 0.581,0.208 0.581,0.208C0.581,0.208 0.499,0.101 0.479,0.076ZM0.412,0.015C0.392,-0.012 0.305,-0.123 0.284,-0.15C0.262,-0.178 0.188,-0.261 0.188,-0.261C0.206,-0.252 0.239,-0.213 0.258,-0.194C0.278,-0.176 0.342,-0.096 0.359,-0.073C0.376,-0.051 0.442,0.041 0.458,0.063C0.473,0.086 0.528,0.167 0.528,0.167C0.528,0.167 0.433,0.043 0.412,0.015ZM0.324,-0.077C0.282,-0.136 0.209,-0.224 0.195,-0.24C0.184,-0.252 0.153,-0.285 0.158,-0.282C0.162,-0.279 0.183,-0.258 0.202,-0.239C0.237,-0.204 0.296,-0.132 0.32,-0.098C0.336,-0.078 0.388,-0.003 0.403,0.016C0.418,0.036 0.475,0.122 0.475,0.122C0.468,0.114 0.364,-0.023 0.324,-0.077ZM0.341,-0.035C0.329,-0.05 0.261,-0.14 0.245,-0.161C0.229,-0.182 0.183,-0.24 0.173,-0.252C0.162,-0.265 0.127,-0.304 0.127,-0.304C0.135,-0.296 0.189,-0.242 0.213,-0.215C0.242,-0.181 0.316,-0.082 0.331,-0.06C0.346,-0.038 0.424,0.076 0.424,0.076C0.424,0.076 0.353,-0.019 0.341,-0.035ZM0.341,-0.011C0.327,-0.027 0.277,-0.096 0.251,-0.133C0.226,-0.169 0.181,-0.229 0.167,-0.246C0.152,-0.264 0.11,-0.319 0.11,-0.319C0.127,-0.303 0.204,-0.209 0.221,-0.188C0.239,-0.166 0.285,-0.103 0.303,-0.078C0.32,-0.053 0.376,0.031 0.376,0.031C0.376,0.031 0.354,0.005 0.341,-0.011ZM0.251,-0.117C0.231,-0.147 0.176,-0.222 0.157,-0.247C0.137,-0.273 0.092,-0.333 0.092,-0.333C0.116,-0.311 0.156,-0.257 0.174,-0.235C0.191,-0.214 0.248,-0.135 0.263,-0.113C0.279,-0.091 0.326,-0.019 0.326,-0.019C0.326,-0.019 0.272,-0.087 0.251,-0.117ZM0.235,-0.129C0.218,-0.15 0.167,-0.222 0.152,-0.24C0.137,-0.259 0.074,-0.348 0.074,-0.348C0.104,-0.316 0.167,-0.228 0.189,-0.2C0.211,-0.172 0.279,-0.07 0.279,-0.07C0.279,-0.07 0.251,-0.108 0.235,-0.129ZM0.232,-0.122C0.222,-0.134 0.139,-0.247 0.128,-0.263C0.111,-0.289 0.061,-0.359 0.061,-0.359C0.061,-0.359 0.068,-0.352 0.079,-0.337C0.087,-0.325 0.097,-0.313 0.101,-0.307C0.111,-0.292 0.139,-0.257 0.152,-0.239C0.164,-0.223 0.235,-0.121 0.234,-0.121C0.233,-0.121 0.233,-0.121 0.232,-0.122ZM0.186,-0.174C0.176,-0.185 0.1,-0.29 0.09,-0.305C0.074,-0.329 0.042,-0.377 0.042,-0.377C0.042,-0.377 0.057,-0.358 0.064,-0.347C0.074,-0.333 0.1,-0.3 0.112,-0.283C0.123,-0.268 0.189,-0.173 0.187,-0.173C0.187,-0.173 0.187,-0.173 0.186,-0.174ZM0.142,-0.227C0.133,-0.237 0.068,-0.327 0.059,-0.34C0.046,-0.359 0.022,-0.394 0.022,-0.394C0.022,-0.394 0.033,-0.382 0.04,-0.373C0.048,-0.361 0.067,-0.335 0.077,-0.321C0.086,-0.308 0.144,-0.226 0.143,-0.226C0.142,-0.226 0.142,-0.226 0.142,-0.227ZM0.094,-0.285C0.088,-0.293 0.037,-0.363 0.03,-0.373C0.022,-0.385 0,-0.415 0,-0.415C0,-0.415 0.011,-0.403 0.016,-0.396C0.025,-0.383 0.037,-0.369 0.044,-0.358C0.052,-0.348 0.096,-0.284 0.095,-0.284C0.095,-0.284 0.095,-0.284 0.094,-0.285Z" style="fill:url(#_Linear1);fill-rule:nonzero;"/>
        </g>
        <g transform="matrix(-84.4843,-18.8459,-18.8459,84.4843,485.197,442.811)">
            <path d="M1.786,-0.568C1.77,-0.565 1.676,-0.649 1.544,-0.683C1.47,-0.702 1.408,-0.705 1.363,-0.704C1.312,-0.703 1.283,-0.697 1.288,-0.704C1.298,-0.717 1.423,-0.745 1.526,-0.725C1.532,-0.724 1.537,-0.723 1.542,-0.722C1.706,-0.686 1.8,-0.571 1.786,-0.568ZM1.747,-0.529C1.728,-0.526 1.634,-0.61 1.511,-0.642C1.444,-0.659 1.386,-0.662 1.343,-0.662C1.293,-0.662 1.265,-0.657 1.27,-0.663C1.28,-0.677 1.404,-0.702 1.497,-0.685C1.503,-0.684 1.508,-0.683 1.513,-0.682C1.677,-0.645 1.761,-0.532 1.747,-0.529ZM1.705,-0.49C1.686,-0.488 1.596,-0.565 1.473,-0.598C1.416,-0.613 1.362,-0.616 1.322,-0.616C1.275,-0.616 1.246,-0.612 1.25,-0.619C1.263,-0.636 1.378,-0.659 1.472,-0.642C1.476,-0.641 1.481,-0.64 1.486,-0.639C1.637,-0.605 1.724,-0.491 1.705,-0.49ZM1.143,-0.642C0.96,-0.538 0.806,-0.393 0.796,-0.397C0.791,-0.399 0.922,-0.524 1.035,-0.599C1.044,-0.604 1.117,-0.654 1.16,-0.667C1.176,-0.672 1.186,-0.675 1.189,-0.674C1.194,-0.673 1.179,-0.663 1.143,-0.642ZM1.662,-0.448C1.643,-0.446 1.565,-0.516 1.442,-0.549C1.385,-0.564 1.334,-0.567 1.295,-0.568C1.25,-0.568 1.223,-0.565 1.228,-0.571C1.241,-0.588 1.344,-0.612 1.438,-0.596C1.444,-0.595 1.449,-0.594 1.454,-0.593C1.595,-0.561 1.685,-0.45 1.662,-0.448ZM2.049,-0.207C2.097,-0.111 2.151,0.229 2.15,0.233C2.15,0.234 2.047,-0.092 2.019,-0.161C1.977,-0.265 1.864,-0.481 1.866,-0.482C1.866,-0.482 1.866,-0.482 1.866,-0.482C1.869,-0.482 1.991,-0.324 2.049,-0.207ZM1.13,-0.603C0.951,-0.5 0.805,-0.365 0.796,-0.369C0.791,-0.371 0.911,-0.487 1.021,-0.56C1.03,-0.566 1.103,-0.615 1.146,-0.628C1.162,-0.634 1.172,-0.636 1.175,-0.635C1.181,-0.634 1.166,-0.624 1.13,-0.603ZM1.619,-0.404C1.6,-0.403 1.515,-0.469 1.409,-0.498C1.352,-0.512 1.302,-0.516 1.265,-0.517C1.221,-0.518 1.196,-0.514 1.201,-0.521C1.213,-0.538 1.311,-0.563 1.406,-0.547C1.411,-0.546 1.417,-0.545 1.422,-0.543C1.558,-0.513 1.642,-0.407 1.619,-0.404ZM2.006,-0.169C2.047,-0.082 2.096,0.242 2.095,0.246C2.095,0.246 2.091,0.238 2.087,0.22C2.066,0.143 1.992,-0.079 1.969,-0.137C1.927,-0.24 1.821,-0.446 1.824,-0.448C1.824,-0.448 1.824,-0.448 1.824,-0.448C1.827,-0.447 1.95,-0.287 2.006,-0.169ZM1.114,-0.56C0.934,-0.454 0.803,-0.334 0.794,-0.338C0.788,-0.34 0.896,-0.445 1.004,-0.517C1.013,-0.523 1.085,-0.573 1.128,-0.586C1.145,-0.591 1.155,-0.594 1.158,-0.593C1.164,-0.592 1.15,-0.582 1.114,-0.56ZM1.949,-0.156C1.991,-0.069 2.039,0.252 2.038,0.256C2.038,0.256 2.033,0.247 2.028,0.231C2.004,0.157 1.935,-0.069 1.912,-0.127C1.87,-0.23 1.778,-0.411 1.78,-0.413C1.78,-0.413 1.78,-0.413 1.78,-0.413C1.783,-0.412 1.895,-0.269 1.949,-0.156ZM1.573,-0.359C1.554,-0.357 1.485,-0.415 1.378,-0.443C1.322,-0.458 1.272,-0.462 1.236,-0.463C1.192,-0.464 1.167,-0.461 1.172,-0.468C1.185,-0.485 1.281,-0.511 1.375,-0.495C1.38,-0.494 1.384,-0.493 1.389,-0.492C1.516,-0.464 1.597,-0.361 1.573,-0.359ZM1.095,-0.514C0.921,-0.411 0.799,-0.301 0.79,-0.304C0.785,-0.307 0.884,-0.404 0.984,-0.472C0.993,-0.478 1.065,-0.528 1.108,-0.541C1.124,-0.546 1.134,-0.549 1.138,-0.548C1.145,-0.546 1.131,-0.536 1.095,-0.514ZM1.881,-0.178C1.943,-0.041 1.984,0.26 1.983,0.264C1.983,0.264 1.976,0.256 1.972,0.24C1.954,0.167 1.883,-0.035 1.85,-0.125C1.798,-0.263 1.722,-0.365 1.734,-0.374C1.735,-0.375 1.736,-0.375 1.738,-0.375C1.757,-0.37 1.833,-0.285 1.881,-0.178ZM1.073,-0.465C0.906,-0.366 0.793,-0.265 0.783,-0.268C0.778,-0.27 0.865,-0.356 0.965,-0.425C0.974,-0.431 1.042,-0.48 1.085,-0.493C1.101,-0.498 1.111,-0.5 1.115,-0.499C1.122,-0.498 1.109,-0.487 1.073,-0.465ZM1.527,-0.313C1.508,-0.311 1.44,-0.361 1.334,-0.391C1.295,-0.402 1.25,-0.405 1.213,-0.406C1.169,-0.407 1.137,-0.406 1.142,-0.412C1.154,-0.429 1.246,-0.458 1.34,-0.442C1.344,-0.441 1.349,-0.44 1.354,-0.439C1.476,-0.412 1.551,-0.315 1.527,-0.313ZM1.826,-0.155C1.891,-0.019 1.926,0.272 1.925,0.276C1.925,0.277 1.918,0.271 1.915,0.259C1.897,0.188 1.835,0.007 1.801,-0.085C1.749,-0.223 1.676,-0.325 1.688,-0.334C1.689,-0.335 1.69,-0.335 1.692,-0.334C1.711,-0.33 1.779,-0.257 1.826,-0.155ZM1.05,-0.414C0.928,-0.346 0.785,-0.226 0.775,-0.23C0.77,-0.232 0.844,-0.307 0.94,-0.374C0.949,-0.38 1.017,-0.428 1.06,-0.442C1.076,-0.447 1.087,-0.449 1.091,-0.448C1.099,-0.446 1.086,-0.434 1.05,-0.414ZM1.482,-0.265C1.47,-0.256 1.391,-0.312 1.3,-0.333C1.248,-0.345 1.205,-0.349 1.173,-0.349C1.128,-0.351 1.104,-0.347 1.11,-0.356C1.122,-0.372 1.209,-0.4 1.3,-0.387C1.306,-0.386 1.313,-0.384 1.319,-0.383C1.426,-0.359 1.495,-0.276 1.482,-0.265ZM1.775,-0.119C1.84,0.017 1.87,0.285 1.869,0.289C1.869,0.29 1.862,0.288 1.859,0.269C1.847,0.203 1.785,0.039 1.749,-0.048C1.698,-0.171 1.627,-0.284 1.64,-0.292C1.641,-0.293 1.643,-0.294 1.646,-0.293C1.669,-0.288 1.73,-0.213 1.775,-0.119ZM1.026,-0.361C0.882,-0.278 0.775,-0.185 0.766,-0.189C0.761,-0.191 0.824,-0.256 0.914,-0.32C0.922,-0.326 0.99,-0.375 1.033,-0.388C1.05,-0.393 1.061,-0.395 1.065,-0.394C1.074,-0.393 1.061,-0.381 1.026,-0.361ZM1.433,-0.217C1.418,-0.205 1.351,-0.254 1.26,-0.275C1.211,-0.287 1.169,-0.29 1.138,-0.291C1.094,-0.291 1.072,-0.288 1.078,-0.296C1.089,-0.313 1.179,-0.344 1.265,-0.33C1.27,-0.329 1.275,-0.328 1.28,-0.327C1.384,-0.304 1.447,-0.227 1.433,-0.217ZM1.726,-0.077C1.791,0.059 1.812,0.297 1.811,0.301C1.811,0.301 1.801,0.298 1.797,0.277C1.783,0.199 1.737,0.082 1.7,-0.007C1.649,-0.13 1.578,-0.243 1.59,-0.251C1.592,-0.252 1.594,-0.252 1.596,-0.251C1.62,-0.246 1.683,-0.166 1.726,-0.077ZM0.993,-0.302C0.894,-0.246 0.764,-0.142 0.754,-0.146C0.749,-0.148 0.812,-0.212 0.886,-0.265C0.894,-0.271 0.961,-0.319 1.004,-0.333C1.02,-0.337 1.031,-0.339 1.036,-0.338C1.045,-0.336 1.032,-0.323 0.993,-0.302ZM1.666,-0.054C1.742,0.098 1.77,0.285 1.755,0.314C1.754,0.315 1.746,0.307 1.742,0.292C1.73,0.237 1.676,0.099 1.64,0.012C1.589,-0.111 1.528,-0.197 1.54,-0.206C1.542,-0.207 1.544,-0.207 1.546,-0.206C1.57,-0.201 1.632,-0.124 1.666,-0.054ZM1.384,-0.166C1.375,-0.16 1.35,-0.172 1.311,-0.188C1.283,-0.199 1.247,-0.213 1.206,-0.22C1.098,-0.241 1.033,-0.221 1.043,-0.236C1.054,-0.252 1.135,-0.284 1.225,-0.271C1.232,-0.27 1.238,-0.269 1.245,-0.268C1.342,-0.246 1.398,-0.177 1.384,-0.166ZM0.965,-0.244C0.865,-0.188 0.752,-0.098 0.742,-0.102C0.737,-0.104 0.788,-0.157 0.858,-0.209C0.867,-0.215 0.931,-0.262 0.974,-0.275C0.99,-0.28 1.001,-0.282 1.006,-0.281C1.016,-0.279 1.004,-0.266 0.965,-0.244ZM1.612,-0.02C1.686,0.122 1.713,0.328 1.697,0.329C1.68,0.33 1.625,0.133 1.575,0.025C1.525,-0.083 1.475,-0.15 1.489,-0.161C1.491,-0.162 1.494,-0.162 1.496,-0.162C1.519,-0.156 1.574,-0.092 1.612,-0.02ZM0.718,-0.327C0.708,-0.313 0.582,-0.201 0.524,-0.157C0.451,-0.102 0.331,-0.031 0.331,-0.043C0.331,-0.051 0.418,-0.093 0.523,-0.174C0.58,-0.218 0.711,-0.332 0.719,-0.331C0.72,-0.331 0.72,-0.329 0.718,-0.327ZM1.332,-0.115C1.324,-0.108 1.296,-0.119 1.258,-0.133C1.227,-0.144 1.189,-0.157 1.15,-0.162C1.057,-0.175 0.996,-0.159 1.007,-0.174C1.018,-0.191 1.085,-0.22 1.175,-0.213C1.185,-0.212 1.195,-0.21 1.204,-0.208C1.288,-0.19 1.345,-0.125 1.332,-0.115ZM0.721,-0.302C0.716,-0.295 0.683,-0.265 0.644,-0.231C0.604,-0.196 0.557,-0.156 0.527,-0.133C0.455,-0.078 0.346,-0.017 0.346,-0.028C0.346,-0.029 0.348,-0.031 0.351,-0.034C0.369,-0.05 0.457,-0.1 0.534,-0.158C0.59,-0.201 0.714,-0.308 0.722,-0.306C0.723,-0.306 0.723,-0.305 0.721,-0.302ZM0.934,-0.184C0.834,-0.128 0.738,-0.052 0.729,-0.056C0.724,-0.058 0.768,-0.104 0.828,-0.15C0.837,-0.156 0.9,-0.203 0.943,-0.217C0.958,-0.221 0.969,-0.223 0.974,-0.222C0.985,-0.22 0.973,-0.206 0.934,-0.184ZM1.558,0.018C1.632,0.155 1.653,0.341 1.637,0.342C1.62,0.344 1.573,0.173 1.523,0.068C1.471,-0.041 1.423,-0.104 1.437,-0.115C1.439,-0.116 1.442,-0.117 1.445,-0.116C1.468,-0.111 1.519,-0.054 1.558,0.018ZM0.721,-0.273C0.711,-0.26 0.573,-0.139 0.53,-0.108C0.476,-0.068 0.363,-0.003 0.363,-0.014C0.363,-0.023 0.451,-0.067 0.536,-0.133C0.561,-0.152 0.713,-0.279 0.722,-0.277C0.723,-0.277 0.723,-0.276 0.721,-0.273ZM1.281,-0.062C1.273,-0.056 1.254,-0.063 1.22,-0.074C1.194,-0.082 1.159,-0.092 1.114,-0.1C1.026,-0.114 0.96,-0.097 0.971,-0.112C0.982,-0.128 1.06,-0.16 1.139,-0.153C1.149,-0.152 1.158,-0.15 1.167,-0.148C1.25,-0.13 1.294,-0.073 1.281,-0.062ZM0.719,-0.242C0.71,-0.229 0.582,-0.116 0.538,-0.085C0.487,-0.048 0.378,0.014 0.378,0.002C0.378,-0.006 0.463,-0.052 0.545,-0.113C0.57,-0.131 0.712,-0.248 0.721,-0.246C0.721,-0.246 0.721,-0.245 0.719,-0.242ZM1.501,0.053C1.569,0.171 1.593,0.355 1.577,0.357C1.56,0.358 1.518,0.216 1.468,0.11C1.416,0.001 1.37,-0.056 1.384,-0.067C1.387,-0.069 1.39,-0.069 1.394,-0.068C1.416,-0.063 1.461,-0.017 1.501,0.053ZM0.716,-0.21C0.706,-0.196 0.587,-0.09 0.543,-0.058C0.492,-0.022 0.389,0.034 0.389,0.022C0.389,0.014 0.479,-0.034 0.561,-0.095C0.586,-0.114 0.709,-0.216 0.717,-0.214C0.718,-0.214 0.718,-0.212 0.716,-0.21ZM0.9,-0.122C0.801,-0.068 0.723,-0.004 0.714,-0.008C0.709,-0.01 0.751,-0.054 0.797,-0.089C0.806,-0.096 0.872,-0.145 0.911,-0.157C0.926,-0.161 0.937,-0.163 0.942,-0.162C0.954,-0.159 0.942,-0.145 0.9,-0.122ZM1.229,-0.009C1.218,-0.003 1.197,-0.01 1.166,-0.019C1.144,-0.025 1.117,-0.032 1.084,-0.037C0.994,-0.051 0.923,-0.033 0.933,-0.048C0.944,-0.064 1.019,-0.098 1.096,-0.092C1.106,-0.091 1.117,-0.089 1.126,-0.087C1.203,-0.07 1.244,-0.017 1.229,-0.009ZM0.711,-0.174C0.702,-0.16 0.59,-0.062 0.546,-0.031C0.495,0.006 0.4,0.056 0.4,0.044C0.4,0.036 0.475,-0.001 0.557,-0.062C0.582,-0.081 0.704,-0.18 0.713,-0.179C0.714,-0.178 0.713,-0.177 0.711,-0.174ZM1.443,0.087C1.512,0.204 1.533,0.372 1.517,0.373C1.5,0.375 1.446,0.214 1.409,0.142C1.371,0.066 1.316,-0.008 1.331,-0.018C1.334,-0.02 1.337,-0.021 1.342,-0.02C1.364,-0.015 1.406,0.026 1.443,0.087ZM0.869,-0.061C0.819,-0.035 0.708,0.044 0.699,0.04C0.694,0.038 0.726,0.004 0.767,-0.029C0.775,-0.035 0.839,-0.084 0.878,-0.096C0.893,-0.1 0.903,-0.102 0.909,-0.101C0.921,-0.098 0.909,-0.082 0.869,-0.061ZM0.706,-0.137C0.698,-0.123 0.59,-0.029 0.546,0.001C0.499,0.033 0.409,0.079 0.411,0.068C0.413,0.058 0.498,0.013 0.579,-0.048C0.604,-0.066 0.698,-0.145 0.707,-0.142C0.709,-0.142 0.708,-0.14 0.706,-0.137ZM1.177,0.044C1.168,0.051 1.153,0.047 1.125,0.04C1.102,0.034 1.071,0.027 1.03,0.022C0.959,0.014 0.887,0.029 0.897,0.015C0.908,-0.001 0.979,-0.037 1.06,-0.03C1.069,-0.029 1.078,-0.028 1.086,-0.026C1.153,-0.011 1.19,0.034 1.177,0.044ZM1.389,0.131C1.449,0.226 1.472,0.389 1.456,0.39C1.439,0.392 1.391,0.256 1.353,0.184C1.318,0.118 1.262,0.04 1.277,0.029C1.28,0.027 1.283,0.027 1.288,0.028C1.31,0.033 1.354,0.075 1.389,0.131ZM0.697,-0.097C0.688,-0.083 0.593,0.001 0.549,0.031C0.502,0.064 0.418,0.105 0.42,0.093C0.422,0.083 0.498,0.043 0.578,-0.016C0.602,-0.034 0.689,-0.105 0.698,-0.103C0.699,-0.102 0.699,-0.1 0.697,-0.097ZM0.835,0.002C0.786,0.027 0.693,0.093 0.683,0.09C0.678,0.088 0.704,0.061 0.738,0.031C0.746,0.024 0.805,-0.023 0.844,-0.035C0.858,-0.039 0.869,-0.04 0.874,-0.039C0.887,-0.036 0.876,-0.02 0.835,0.002ZM0.688,-0.055C0.679,-0.041 0.591,0.035 0.547,0.065C0.5,0.097 0.427,0.131 0.429,0.12C0.431,0.11 0.496,0.077 0.576,0.019C0.6,0.001 0.68,-0.063 0.689,-0.061C0.691,-0.061 0.69,-0.059 0.688,-0.055ZM1.334,0.175C1.394,0.27 1.411,0.405 1.394,0.406C1.377,0.408 1.34,0.309 1.302,0.237C1.267,0.171 1.208,0.09 1.223,0.08C1.226,0.078 1.23,0.077 1.235,0.078C1.258,0.083 1.3,0.12 1.334,0.175ZM1.125,0.098C1.114,0.109 1.066,0.094 1.019,0.087C0.92,0.073 0.848,0.094 0.859,0.079C0.87,0.063 0.935,0.026 1.016,0.032C1.026,0.033 1.036,0.034 1.044,0.036C1.104,0.049 1.136,0.087 1.125,0.098ZM0.678,-0.012C0.669,0.002 0.593,0.069 0.551,0.098C0.508,0.128 0.433,0.159 0.436,0.148C0.439,0.139 0.532,0.085 0.572,0.056C0.595,0.038 0.67,-0.021 0.679,-0.018C0.681,-0.018 0.68,-0.016 0.678,-0.012ZM0.803,0.064C0.747,0.094 0.676,0.143 0.667,0.14C0.662,0.138 0.68,0.118 0.714,0.087C0.722,0.08 0.779,0.037 0.81,0.027C0.824,0.023 0.835,0.021 0.841,0.023C0.854,0.026 0.843,0.042 0.803,0.064ZM1.276,0.217C1.329,0.3 1.349,0.42 1.333,0.425C1.315,0.431 1.271,0.322 1.234,0.258C1.197,0.194 1.153,0.14 1.168,0.13C1.171,0.127 1.176,0.127 1.182,0.128C1.205,0.133 1.244,0.166 1.276,0.217ZM1.072,0.153C1.059,0.166 1.029,0.153 0.949,0.145C0.887,0.139 0.818,0.156 0.822,0.143C0.827,0.128 0.901,0.088 0.977,0.093C0.986,0.094 0.994,0.095 1.002,0.097C1.054,0.109 1.083,0.143 1.072,0.153ZM0.666,0.033C0.658,0.047 0.586,0.107 0.544,0.136C0.501,0.166 0.438,0.189 0.441,0.178C0.444,0.169 0.527,0.121 0.565,0.095C0.588,0.079 0.658,0.023 0.667,0.025C0.669,0.025 0.669,0.028 0.666,0.033ZM0.768,0.127C0.741,0.141 0.658,0.193 0.652,0.191C0.647,0.189 0.654,0.177 0.687,0.147C0.695,0.14 0.745,0.099 0.776,0.089C0.79,0.085 0.8,0.084 0.806,0.085C0.82,0.088 0.81,0.105 0.768,0.127ZM0.654,0.078C0.645,0.093 0.577,0.152 0.535,0.178C0.494,0.202 0.445,0.219 0.448,0.208C0.451,0.198 0.519,0.159 0.553,0.137C0.577,0.121 0.645,0.068 0.655,0.07C0.657,0.071 0.656,0.073 0.654,0.078ZM1.221,0.26C1.269,0.336 1.285,0.439 1.27,0.445C1.252,0.451 1.221,0.377 1.188,0.321C1.154,0.263 1.097,0.192 1.111,0.181C1.115,0.178 1.121,0.178 1.128,0.179C1.152,0.185 1.191,0.213 1.221,0.26ZM0.229,0.001C0.191,0.022 0.101,0.037 0.058,0.037C0.043,0.037 0.032,0.037 0.023,0.036C0.023,0.037 0.023,0.037 0.024,0.037C0.026,0.037 0.029,0.038 0.031,0.038C0.057,0.04 0.067,0.04 0.104,0.038C0.19,0.031 0.281,-0.005 0.25,0.012C0.212,0.033 0.127,0.049 0.079,0.046C0.051,0.045 0.04,0.044 0.029,0.041C0.03,0.042 0.03,0.042 0.031,0.043C0.035,0.044 0.04,0.045 0.044,0.045C0.069,0.049 0.085,0.05 0.122,0.048C0.21,0.044 0.299,0.008 0.268,0.025C0.231,0.046 0.152,0.061 0.104,0.058C0.067,0.056 0.054,0.052 0.035,0.046C0.035,0.046 0.036,0.047 0.037,0.048C0.043,0.05 0.052,0.052 0.062,0.055C0.088,0.061 0.101,0.061 0.137,0.061C0.227,0.06 0.318,0.023 0.287,0.041C0.249,0.061 0.174,0.076 0.126,0.072C0.088,0.068 0.068,0.062 0.041,0.051C0.043,0.052 0.045,0.054 0.047,0.055C0.053,0.058 0.064,0.062 0.076,0.065C0.104,0.073 0.122,0.075 0.154,0.075C0.246,0.077 0.335,0.041 0.304,0.058C0.266,0.079 0.195,0.093 0.147,0.088C0.11,0.083 0.084,0.075 0.054,0.06C0.053,0.059 0.052,0.058 0.051,0.058C0.055,0.061 0.059,0.064 0.059,0.064C0.058,0.063 0.053,0.06 0.047,0.056C0.041,0.053 0.041,0.053 0.044,0.054C0.042,0.053 0.04,0.051 0.037,0.049L0.033,0.048C0.037,0.05 0.04,0.052 0.04,0.052C0.036,0.05 0.034,0.048 0.022,0.042C0.022,0.042 0.021,0.042 0.021,0.042C0.024,0.043 0.025,0.044 0.025,0.044C0.023,0.043 0.02,0.041 0.016,0.04C0.015,0.04 0.015,0.039 0.015,0.039C0.013,0.039 0.012,0.038 0.011,0.037C0.01,0.037 0.009,0.037 0.009,0.037C0.011,0.038 0.013,0.038 0.013,0.038C0.011,0.038 0.006,0.037 -0.004,0.033L-0.028,0.029C-0.04,0.027 -0.057,0.024 -0.09,0.012C-0.136,-0.004 -0.188,-0.04 -0.203,-0.061C-0.22,-0.086 -0.166,-0.033 -0.096,0.002C-0.073,0.013 -0.057,0.019 -0.032,0.026C-0.031,0.026 -0.03,0.026 -0.03,0.026C-0.061,0.017 -0.099,-0.001 -0.128,-0.024C-0.159,-0.048 -0.162,-0.057 -0.162,-0.058C-0.162,-0.059 -0.157,-0.055 -0.157,-0.055C-0.157,-0.055 -0.145,-0.046 -0.123,-0.03C-0.101,-0.013 -0.069,0.004 -0.06,0.01C-0.049,0.015 -0.026,0.026 -0.014,0.029C-0.013,0.029 -0.013,0.029 -0.013,0.029C-0.02,0.027 -0.027,0.023 -0.036,0.019C-0.067,0.004 -0.091,-0.014 -0.103,-0.026C-0.113,-0.034 -0.121,-0.044 -0.12,-0.045C-0.12,-0.047 -0.117,-0.045 -0.106,-0.036C-0.095,-0.026 -0.076,-0.012 -0.057,0.001C-0.037,0.015 -0.008,0.029 -0.008,0.029C-0.007,0.03 -0.006,0.03 -0.005,0.031C-0.004,0.031 -0.003,0.031 -0.002,0.031C-0.005,0.03 -0.009,0.028 -0.015,0.024C-0.038,0.01 -0.052,-0 -0.062,-0.009C-0.071,-0.017 -0.08,-0.028 -0.081,-0.03C-0.081,-0.032 -0.071,-0.024 -0.06,-0.014C-0.049,-0.004 -0.032,0.008 -0.019,0.018C-0.007,0.026 0.001,0.03 0.003,0.032C0.004,0.032 0.004,0.032 0.005,0.032C-0.003,0.026 -0.014,0.018 -0.022,0.011C-0.033,0.002 -0.043,-0.01 -0.043,-0.011C-0.043,-0.013 -0.039,-0.009 -0.034,-0.004C-0.029,-0 -0.013,0.014 -0.004,0.021C0.001,0.025 0.006,0.029 0.01,0.032C0.011,0.032 0.012,0.032 0.014,0.032C0.003,0.024 -0.005,0.014 -0.007,0.012C-0.009,0.009 -0.007,0.009 -0.005,0.011C-0.003,0.013 0.007,0.022 0.015,0.029C0.016,0.03 0.017,0.031 0.018,0.032C0.043,0.034 0.054,0.031 0.082,0.029C0.154,0.022 0.229,-0.005 0.235,-0.004C0.236,-0.004 0.234,-0.002 0.229,0.001ZM0.019,0.037C0.019,0.036 0.019,0.036 0.018,0.036C0.017,0.036 0.016,0.036 0.015,0.036C0.015,0.036 0.015,0.036 0.016,0.036C0.017,0.036 0.018,0.036 0.019,0.037ZM0.011,0.036C0.011,0.035 0.011,0.035 0.01,0.035C0.01,0.035 0.009,0.035 0.008,0.035C0.009,0.035 0.009,0.035 0.01,0.036C0.01,0.036 0.011,0.036 0.011,0.036ZM0.007,0.035L0.005,0.034C0.004,0.034 0.003,0.034 0.002,0.034C0.003,0.034 0.004,0.035 0.005,0.035C0.005,0.035 0.006,0.035 0.007,0.035ZM0.016,0.038C0.016,0.038 0.015,0.038 0.014,0.038C0.016,0.039 0.017,0.039 0.018,0.04C0.018,0.04 0.019,0.04 0.019,0.04C0.018,0.04 0.017,0.039 0.016,0.038ZM0.027,0.042C0.026,0.041 0.025,0.041 0.024,0.04C0.023,0.04 0.022,0.04 0.02,0.039C0.021,0.04 0.022,0.04 0.023,0.041L0.027,0.042ZM0.031,0.045C0.029,0.044 0.028,0.044 0.026,0.043C0.028,0.044 0.029,0.045 0.03,0.046C0.031,0.046 0.032,0.046 0.033,0.047C0.032,0.046 0.031,0.045 0.031,0.045ZM1.019,0.208C1.005,0.222 0.944,0.203 0.875,0.206C0.825,0.208 0.78,0.217 0.785,0.205C0.791,0.192 0.86,0.152 0.933,0.155C0.943,0.156 0.952,0.157 0.961,0.159C1.007,0.169 1.029,0.197 1.019,0.208ZM0.642,0.124C0.634,0.138 0.572,0.19 0.529,0.216C0.488,0.241 0.45,0.251 0.454,0.24C0.457,0.23 0.53,0.188 0.554,0.172C0.575,0.158 0.634,0.113 0.644,0.115C0.646,0.115 0.646,0.118 0.642,0.124ZM0.746,0.183C0.719,0.197 0.641,0.244 0.635,0.242C0.63,0.24 0.635,0.23 0.668,0.2C0.675,0.193 0.72,0.157 0.748,0.149C0.759,0.146 0.767,0.145 0.773,0.146C0.787,0.15 0.778,0.166 0.746,0.183ZM1.163,0.303C1.211,0.379 1.221,0.46 1.206,0.466C1.188,0.472 1.154,0.398 1.118,0.344C1.083,0.292 1.045,0.247 1.056,0.232C1.059,0.227 1.066,0.226 1.075,0.228C1.098,0.233 1.136,0.26 1.163,0.303ZM0.32,0.078C0.282,0.099 0.22,0.112 0.172,0.107C0.134,0.103 0.103,0.091 0.077,0.075C0.044,0.057 0.071,0.072 0.096,0.079C0.124,0.088 0.137,0.091 0.169,0.093C0.244,0.096 0.319,0.072 0.325,0.074C0.327,0.074 0.325,0.075 0.32,0.078ZM0.966,0.262C0.954,0.276 0.905,0.265 0.845,0.267C0.789,0.269 0.744,0.279 0.75,0.268C0.757,0.252 0.815,0.217 0.883,0.216C0.896,0.216 0.908,0.217 0.918,0.219C0.959,0.228 0.973,0.254 0.966,0.262ZM0.334,0.1C0.296,0.123 0.233,0.133 0.188,0.127C0.154,0.122 0.129,0.112 0.105,0.096C0.048,0.06 0.099,0.092 0.123,0.099C0.146,0.106 0.161,0.11 0.191,0.112C0.26,0.116 0.332,0.094 0.339,0.095C0.341,0.096 0.339,0.097 0.334,0.1ZM0.628,0.17C0.62,0.184 0.57,0.231 0.527,0.255C0.488,0.277 0.454,0.283 0.457,0.272C0.46,0.263 0.515,0.235 0.54,0.219C0.561,0.205 0.62,0.159 0.63,0.161C0.632,0.162 0.632,0.164 0.628,0.17ZM0.347,0.124C0.308,0.148 0.25,0.155 0.213,0.15C0.182,0.146 0.149,0.134 0.13,0.12C0.122,0.114 0.115,0.11 0.11,0.106C0.087,0.087 0.092,0.09 0.105,0.099C0.114,0.106 0.13,0.114 0.14,0.117C0.166,0.127 0.175,0.129 0.205,0.132C0.273,0.14 0.345,0.117 0.353,0.119C0.354,0.119 0.353,0.121 0.347,0.124ZM0.72,0.241C0.694,0.256 0.625,0.295 0.619,0.293C0.614,0.291 0.615,0.283 0.644,0.257C0.651,0.249 0.69,0.216 0.718,0.209C0.727,0.207 0.734,0.206 0.739,0.208C0.752,0.211 0.748,0.225 0.72,0.241ZM1.107,0.348C1.146,0.405 1.157,0.482 1.142,0.487C1.124,0.494 1.082,0.416 1.045,0.366C1.007,0.314 0.991,0.294 1,0.283C1.005,0.279 1.012,0.277 1.022,0.28C1.045,0.285 1.079,0.307 1.107,0.348ZM0.361,0.149C0.333,0.168 0.27,0.18 0.238,0.176C0.221,0.174 0.204,0.169 0.189,0.164C0.19,0.165 0.191,0.166 0.192,0.168C0.211,0.176 0.229,0.179 0.233,0.18C0.304,0.192 0.402,0.158 0.371,0.177C0.343,0.195 0.286,0.207 0.254,0.203C0.237,0.2 0.216,0.194 0.199,0.185C0.2,0.186 0.2,0.187 0.201,0.189C0.208,0.192 0.214,0.195 0.22,0.198C0.23,0.202 0.242,0.204 0.253,0.206C0.319,0.218 0.409,0.182 0.382,0.207C0.37,0.219 0.305,0.236 0.273,0.231C0.245,0.227 0.224,0.218 0.209,0.207C0.21,0.209 0.21,0.211 0.211,0.213C0.217,0.216 0.223,0.219 0.229,0.222C0.241,0.227 0.254,0.231 0.267,0.233C0.333,0.247 0.418,0.212 0.391,0.237C0.379,0.249 0.316,0.263 0.291,0.259C0.262,0.255 0.241,0.244 0.226,0.234C0.226,0.236 0.228,0.239 0.229,0.242C0.245,0.252 0.263,0.259 0.282,0.263C0.348,0.277 0.426,0.242 0.399,0.268C0.387,0.28 0.332,0.293 0.311,0.291C0.273,0.286 0.255,0.272 0.239,0.26C0.238,0.259 0.237,0.258 0.235,0.257C0.237,0.261 0.238,0.264 0.24,0.268C0.242,0.269 0.245,0.271 0.247,0.273C0.263,0.282 0.281,0.29 0.295,0.293C0.366,0.307 0.434,0.274 0.407,0.299C0.395,0.311 0.347,0.324 0.329,0.323C0.294,0.319 0.266,0.301 0.254,0.29C0.251,0.287 0.249,0.285 0.246,0.282L0.251,0.295C0.253,0.296 0.255,0.298 0.258,0.3C0.271,0.309 0.291,0.32 0.312,0.324C0.377,0.338 0.442,0.307 0.416,0.332C0.404,0.344 0.361,0.356 0.343,0.355C0.311,0.352 0.284,0.335 0.273,0.323C0.268,0.318 0.263,0.313 0.26,0.309C0.262,0.315 0.265,0.321 0.268,0.328C0.271,0.329 0.281,0.338 0.288,0.342C0.3,0.348 0.311,0.355 0.328,0.358C0.385,0.369 0.449,0.341 0.422,0.367C0.409,0.379 0.369,0.389 0.353,0.387C0.322,0.384 0.306,0.372 0.294,0.36C0.285,0.352 0.281,0.348 0.276,0.341C0.274,0.339 0.272,0.337 0.271,0.335C0.277,0.349 0.283,0.363 0.284,0.366C0.287,0.371 0.308,0.421 0.308,0.421C0.308,0.421 0.289,0.384 0.287,0.381C0.283,0.375 0.293,0.381 0.285,0.374C0.282,0.372 0.277,0.36 0.275,0.354C0.274,0.35 0.263,0.321 0.257,0.307C0.256,0.306 0.256,0.305 0.255,0.304C0.258,0.313 0.262,0.323 0.262,0.323C0.262,0.323 0.256,0.311 0.252,0.301C0.252,0.301 0.252,0.301 0.252,0.301C0.24,0.287 0.242,0.288 0.247,0.292C0.247,0.292 0.247,0.291 0.247,0.291C0.242,0.284 0.247,0.289 0.244,0.283C0.243,0.283 0.242,0.281 0.241,0.278C0.24,0.277 0.238,0.275 0.237,0.274C0.242,0.286 0.246,0.297 0.246,0.297C0.246,0.297 0.236,0.278 0.232,0.268C0.217,0.249 0.22,0.252 0.229,0.259C0.227,0.253 0.228,0.256 0.225,0.252C0.223,0.25 0.222,0.248 0.221,0.244C0.218,0.242 0.216,0.24 0.214,0.238C0.183,0.204 0.2,0.221 0.211,0.229C0.212,0.23 0.214,0.232 0.216,0.233C0.215,0.231 0.214,0.228 0.212,0.224C0.205,0.218 0.199,0.214 0.192,0.206C0.148,0.158 0.183,0.194 0.198,0.205C0.2,0.206 0.203,0.208 0.207,0.21C0.206,0.208 0.205,0.206 0.204,0.204C0.203,0.203 0.202,0.203 0.202,0.202C0.189,0.192 0.173,0.179 0.169,0.174C0.134,0.138 0.159,0.163 0.172,0.172C0.181,0.178 0.189,0.183 0.197,0.187C0.197,0.186 0.196,0.184 0.195,0.183C0.191,0.18 0.187,0.178 0.183,0.175C0.168,0.164 0.161,0.16 0.152,0.152C0.115,0.118 0.13,0.131 0.152,0.146C0.163,0.155 0.17,0.158 0.184,0.165C0.185,0.166 0.187,0.166 0.189,0.167C0.189,0.166 0.188,0.164 0.188,0.163C0.177,0.159 0.168,0.154 0.161,0.149C0.153,0.144 0.144,0.138 0.138,0.133C0.093,0.096 0.108,0.107 0.132,0.124C0.143,0.131 0.162,0.14 0.174,0.144C0.198,0.153 0.201,0.153 0.224,0.156C0.279,0.163 0.354,0.142 0.364,0.144C0.367,0.144 0.366,0.146 0.361,0.149ZM0.224,0.233C0.222,0.231 0.22,0.23 0.218,0.228C0.218,0.228 0.218,0.228 0.218,0.228C0.219,0.231 0.22,0.234 0.221,0.237C0.223,0.238 0.225,0.239 0.227,0.24C0.225,0.237 0.224,0.235 0.224,0.233ZM0.236,0.265L0.232,0.254C0.23,0.253 0.229,0.252 0.227,0.25L0.232,0.262C0.233,0.263 0.235,0.264 0.236,0.265ZM0.615,0.218C0.607,0.233 0.568,0.271 0.525,0.296C0.494,0.313 0.459,0.318 0.461,0.308C0.463,0.298 0.506,0.277 0.528,0.263C0.549,0.25 0.606,0.207 0.616,0.209C0.619,0.21 0.619,0.212 0.615,0.218ZM0.914,0.317C0.901,0.331 0.842,0.324 0.794,0.327C0.73,0.331 0.71,0.34 0.715,0.328C0.721,0.313 0.773,0.281 0.837,0.276C0.85,0.275 0.862,0.276 0.873,0.279C0.906,0.286 0.922,0.307 0.914,0.317ZM0.695,0.298C0.676,0.309 0.613,0.345 0.603,0.344C0.598,0.343 0.599,0.333 0.623,0.311C0.631,0.304 0.661,0.275 0.69,0.268C0.696,0.267 0.702,0.267 0.706,0.267C0.718,0.27 0.717,0.284 0.695,0.298ZM1.042,0.383C1.085,0.442 1.089,0.506 1.077,0.51C1.057,0.516 1.029,0.465 0.99,0.416C0.952,0.367 0.935,0.345 0.945,0.334C0.949,0.329 0.958,0.328 0.969,0.33C0.991,0.335 1.021,0.354 1.042,0.383ZM0.603,0.264C0.595,0.279 0.558,0.314 0.515,0.338C0.499,0.346 0.465,0.354 0.464,0.344C0.463,0.334 0.493,0.32 0.516,0.307C0.537,0.295 0.594,0.253 0.604,0.255C0.606,0.256 0.606,0.259 0.603,0.264ZM0.863,0.369C0.853,0.384 0.802,0.382 0.761,0.385C0.706,0.391 0.674,0.399 0.681,0.388C0.694,0.369 0.734,0.344 0.793,0.336C0.805,0.335 0.816,0.335 0.826,0.338C0.852,0.343 0.869,0.358 0.863,0.369ZM0.589,0.312C0.581,0.327 0.54,0.361 0.517,0.374C0.502,0.382 0.469,0.39 0.468,0.38C0.467,0.368 0.499,0.353 0.517,0.344C0.531,0.337 0.581,0.301 0.591,0.303C0.593,0.303 0.593,0.306 0.589,0.312ZM0.667,0.356C0.651,0.366 0.597,0.395 0.588,0.394C0.583,0.393 0.584,0.385 0.598,0.369C0.606,0.362 0.634,0.333 0.662,0.327C0.667,0.325 0.671,0.325 0.674,0.326C0.686,0.329 0.686,0.342 0.667,0.356ZM0.983,0.426C1.026,0.484 1.019,0.532 1.01,0.535C0.994,0.54 0.975,0.512 0.938,0.468C0.888,0.41 0.881,0.397 0.89,0.385C0.894,0.38 0.905,0.379 0.917,0.382C0.938,0.386 0.965,0.402 0.983,0.426ZM0.576,0.361C0.568,0.375 0.531,0.406 0.513,0.414C0.497,0.422 0.471,0.426 0.47,0.417C0.469,0.404 0.498,0.393 0.513,0.384C0.523,0.378 0.567,0.348 0.577,0.35C0.58,0.351 0.58,0.354 0.576,0.361ZM0.811,0.422C0.805,0.44 0.75,0.439 0.714,0.444C0.667,0.451 0.641,0.456 0.65,0.444C0.661,0.427 0.711,0.399 0.753,0.395C0.763,0.394 0.774,0.395 0.783,0.397C0.802,0.401 0.816,0.411 0.811,0.422ZM0.921,0.466C0.953,0.503 0.956,0.548 0.947,0.557C0.932,0.571 0.908,0.544 0.876,0.508C0.832,0.461 0.824,0.445 0.835,0.436C0.843,0.43 0.854,0.429 0.866,0.432C0.884,0.436 0.905,0.448 0.921,0.466ZM0.637,0.415C0.621,0.425 0.583,0.445 0.573,0.443C0.568,0.442 0.568,0.438 0.576,0.426C0.582,0.417 0.609,0.389 0.635,0.383C0.638,0.383 0.641,0.383 0.644,0.383C0.655,0.386 0.658,0.401 0.637,0.415ZM0.563,0.409C0.554,0.423 0.525,0.447 0.507,0.454C0.495,0.459 0.474,0.462 0.472,0.453C0.471,0.441 0.497,0.429 0.506,0.425C0.516,0.42 0.554,0.395 0.564,0.397C0.567,0.398 0.567,0.401 0.563,0.409ZM0.76,0.476C0.752,0.494 0.693,0.495 0.663,0.502C0.605,0.515 0.614,0.502 0.627,0.491C0.642,0.477 0.676,0.458 0.714,0.452C0.723,0.451 0.731,0.451 0.737,0.453C0.753,0.457 0.764,0.466 0.76,0.476ZM0.428,0.401C0.416,0.414 0.384,0.422 0.373,0.421C0.342,0.421 0.32,0.405 0.311,0.395C0.263,0.339 0.298,0.379 0.339,0.39C0.357,0.395 0.378,0.394 0.396,0.393C0.412,0.391 0.426,0.389 0.432,0.39C0.436,0.391 0.436,0.394 0.428,0.401ZM0.86,0.508C0.886,0.537 0.889,0.572 0.88,0.583C0.869,0.597 0.843,0.577 0.814,0.549C0.775,0.513 0.769,0.496 0.781,0.487C0.79,0.481 0.802,0.479 0.816,0.482C0.831,0.485 0.847,0.494 0.86,0.508ZM0.614,0.467C0.6,0.479 0.567,0.496 0.558,0.492C0.554,0.49 0.553,0.487 0.56,0.476C0.566,0.466 0.586,0.446 0.606,0.44C0.609,0.438 0.613,0.438 0.616,0.439C0.625,0.441 0.629,0.453 0.614,0.467ZM0.296,0.379C0.299,0.384 0.316,0.427 0.319,0.432C0.322,0.438 0.343,0.487 0.343,0.487C0.343,0.487 0.324,0.45 0.322,0.447C0.318,0.441 0.327,0.448 0.319,0.441C0.317,0.439 0.312,0.428 0.31,0.422C0.307,0.415 0.294,0.379 0.295,0.379C0.295,0.379 0.296,0.379 0.296,0.379ZM0.551,0.456C0.548,0.464 0.521,0.49 0.502,0.495C0.493,0.498 0.476,0.499 0.475,0.49C0.474,0.478 0.494,0.47 0.503,0.465C0.513,0.461 0.541,0.44 0.551,0.442C0.554,0.443 0.555,0.447 0.551,0.456ZM0.435,0.436C0.422,0.448 0.393,0.455 0.383,0.455C0.359,0.455 0.336,0.44 0.327,0.429C0.287,0.382 0.32,0.416 0.348,0.423C0.366,0.428 0.386,0.428 0.403,0.426C0.419,0.425 0.432,0.423 0.438,0.424C0.443,0.425 0.442,0.429 0.435,0.436ZM0.709,0.529C0.702,0.546 0.666,0.547 0.637,0.555C0.59,0.568 0.582,0.561 0.593,0.55C0.607,0.534 0.641,0.513 0.672,0.509C0.68,0.508 0.688,0.508 0.693,0.509C0.707,0.512 0.712,0.521 0.709,0.529ZM0.441,0.471C0.429,0.484 0.401,0.491 0.39,0.49C0.368,0.487 0.355,0.477 0.346,0.466C0.308,0.424 0.338,0.451 0.366,0.459C0.379,0.463 0.396,0.462 0.411,0.46C0.425,0.459 0.437,0.458 0.443,0.459C0.448,0.46 0.449,0.464 0.441,0.471ZM0.593,0.516C0.585,0.528 0.552,0.544 0.545,0.541C0.541,0.539 0.539,0.536 0.545,0.525C0.55,0.515 0.566,0.5 0.576,0.495C0.581,0.493 0.586,0.492 0.59,0.493C0.598,0.495 0.601,0.502 0.593,0.516ZM0.794,0.547C0.817,0.569 0.823,0.597 0.813,0.61C0.802,0.624 0.777,0.613 0.752,0.592C0.719,0.563 0.715,0.55 0.725,0.539C0.734,0.53 0.75,0.529 0.765,0.532C0.776,0.535 0.788,0.54 0.794,0.547ZM0.539,0.502C0.536,0.51 0.512,0.533 0.498,0.535C0.491,0.536 0.479,0.536 0.477,0.527C0.474,0.515 0.495,0.507 0.499,0.505C0.504,0.503 0.529,0.485 0.539,0.487C0.543,0.488 0.544,0.492 0.539,0.502ZM0.334,0.46C0.337,0.463 0.353,0.5 0.356,0.505C0.358,0.509 0.37,0.535 0.375,0.547C0.371,0.535 0.365,0.52 0.367,0.522C0.369,0.526 0.384,0.56 0.387,0.565C0.389,0.569 0.403,0.6 0.406,0.607C0.404,0.601 0.399,0.587 0.402,0.59C0.402,0.592 0.404,0.595 0.406,0.598C0.404,0.595 0.408,0.595 0.419,0.598C0.426,0.6 0.435,0.6 0.444,0.599C0.461,0.599 0.476,0.597 0.463,0.616C0.456,0.627 0.443,0.628 0.438,0.628C0.434,0.627 0.426,0.625 0.417,0.614C0.412,0.607 0.408,0.603 0.407,0.6C0.41,0.606 0.414,0.614 0.415,0.617C0.418,0.622 0.437,0.663 0.437,0.663C0.437,0.663 0.42,0.632 0.418,0.63C0.414,0.625 0.423,0.63 0.415,0.624C0.414,0.623 0.409,0.614 0.407,0.608C0.407,0.608 0.407,0.608 0.407,0.608C0.405,0.605 0.391,0.579 0.389,0.577C0.386,0.572 0.394,0.577 0.387,0.572C0.385,0.57 0.381,0.562 0.379,0.556C0.378,0.555 0.377,0.553 0.376,0.549C0.372,0.542 0.36,0.52 0.358,0.518C0.355,0.513 0.363,0.518 0.356,0.512C0.354,0.511 0.349,0.502 0.347,0.496C0.345,0.49 0.333,0.459 0.334,0.459C0.334,0.459 0.334,0.459 0.334,0.46ZM0.446,0.507C0.434,0.52 0.408,0.525 0.404,0.525C0.388,0.523 0.373,0.514 0.364,0.503C0.33,0.466 0.357,0.487 0.379,0.494C0.39,0.497 0.405,0.496 0.418,0.495C0.431,0.494 0.442,0.493 0.448,0.494C0.453,0.496 0.454,0.499 0.446,0.507ZM0.531,0.543C0.528,0.551 0.508,0.573 0.497,0.573C0.493,0.574 0.481,0.574 0.479,0.565C0.477,0.553 0.493,0.545 0.496,0.543C0.501,0.54 0.52,0.529 0.528,0.531C0.532,0.532 0.533,0.535 0.531,0.543ZM0.568,0.568C0.562,0.579 0.54,0.591 0.533,0.588C0.529,0.586 0.527,0.583 0.532,0.571C0.537,0.562 0.548,0.55 0.555,0.547C0.559,0.544 0.563,0.544 0.567,0.544C0.573,0.546 0.577,0.553 0.568,0.568ZM0.659,0.581C0.655,0.592 0.628,0.602 0.601,0.608C0.572,0.614 0.557,0.618 0.564,0.606C0.573,0.587 0.605,0.569 0.629,0.564C0.638,0.563 0.645,0.563 0.65,0.564C0.659,0.566 0.662,0.573 0.659,0.581ZM0.729,0.587C0.75,0.601 0.753,0.624 0.745,0.637C0.737,0.651 0.713,0.649 0.691,0.635C0.667,0.619 0.66,0.604 0.668,0.593C0.678,0.58 0.696,0.577 0.712,0.58C0.718,0.582 0.723,0.584 0.729,0.587ZM0.452,0.544C0.44,0.556 0.421,0.559 0.416,0.559C0.406,0.558 0.393,0.554 0.384,0.544C0.359,0.513 0.365,0.519 0.397,0.529C0.405,0.531 0.417,0.531 0.428,0.53C0.438,0.529 0.448,0.528 0.453,0.53C0.459,0.531 0.46,0.535 0.452,0.544ZM0.521,0.585C0.519,0.593 0.506,0.611 0.495,0.612C0.491,0.612 0.483,0.611 0.481,0.602C0.479,0.59 0.491,0.584 0.494,0.581C0.496,0.58 0.51,0.573 0.517,0.575C0.52,0.575 0.522,0.578 0.521,0.585ZM0.457,0.58C0.449,0.59 0.432,0.594 0.427,0.593C0.423,0.593 0.409,0.59 0.4,0.579C0.383,0.558 0.379,0.554 0.408,0.563C0.416,0.566 0.426,0.565 0.436,0.565C0.445,0.564 0.453,0.564 0.458,0.565C0.464,0.566 0.465,0.57 0.457,0.58ZM0.547,0.616C0.541,0.628 0.526,0.636 0.521,0.633C0.519,0.632 0.516,0.63 0.519,0.619C0.522,0.609 0.533,0.598 0.537,0.596C0.54,0.594 0.543,0.593 0.546,0.594C0.551,0.595 0.554,0.602 0.547,0.616ZM0.681,0.654C0.681,0.669 0.665,0.682 0.644,0.679C0.617,0.676 0.608,0.664 0.61,0.653C0.612,0.639 0.632,0.627 0.65,0.627C0.653,0.627 0.656,0.627 0.659,0.628C0.673,0.631 0.681,0.642 0.681,0.654ZM0.611,0.621C0.618,0.63 0.601,0.646 0.579,0.654C0.545,0.667 0.538,0.665 0.538,0.658C0.537,0.653 0.547,0.641 0.565,0.629C0.58,0.62 0.596,0.615 0.605,0.617C0.608,0.618 0.61,0.619 0.611,0.621ZM0.513,0.625C0.512,0.634 0.503,0.648 0.495,0.65C0.491,0.65 0.486,0.647 0.484,0.638C0.481,0.626 0.491,0.621 0.495,0.619C0.496,0.618 0.504,0.614 0.509,0.615C0.512,0.616 0.514,0.619 0.513,0.625ZM0.528,0.66C0.524,0.672 0.515,0.678 0.512,0.678C0.509,0.677 0.507,0.674 0.509,0.663C0.511,0.652 0.52,0.643 0.523,0.641C0.525,0.64 0.527,0.64 0.528,0.64C0.532,0.641 0.531,0.651 0.528,0.66ZM0.47,0.649C0.465,0.659 0.457,0.662 0.453,0.661C0.449,0.661 0.441,0.659 0.434,0.649C0.424,0.635 0.419,0.63 0.434,0.633C0.445,0.635 0.459,0.633 0.467,0.634C0.474,0.636 0.476,0.64 0.47,0.649ZM0.612,0.681C0.617,0.69 0.61,0.704 0.593,0.71C0.578,0.716 0.557,0.718 0.554,0.712C0.55,0.704 0.563,0.688 0.578,0.68C0.588,0.675 0.596,0.673 0.603,0.675C0.607,0.676 0.61,0.678 0.612,0.681ZM0.505,0.668C0.503,0.676 0.497,0.685 0.495,0.686C0.491,0.688 0.488,0.684 0.486,0.675C0.484,0.661 0.491,0.658 0.494,0.656C0.496,0.655 0.498,0.654 0.501,0.655C0.504,0.655 0.506,0.658 0.505,0.668ZM0.562,0.669C0.571,0.672 0.566,0.683 0.552,0.695C0.539,0.707 0.524,0.712 0.519,0.711C0.513,0.71 0.515,0.699 0.528,0.684C0.539,0.671 0.554,0.667 0.561,0.669C0.562,0.669 0.562,0.669 0.562,0.669ZM0.436,0.656C0.438,0.661 0.466,0.713 0.466,0.713C0.466,0.713 0.439,0.669 0.437,0.663C0.435,0.659 0.435,0.654 0.435,0.655C0.435,0.655 0.436,0.655 0.436,0.656ZM0.478,0.682C0.474,0.693 0.468,0.694 0.466,0.694C0.463,0.695 0.456,0.691 0.45,0.682C0.443,0.671 0.44,0.666 0.45,0.667C0.454,0.667 0.463,0.666 0.47,0.668C0.477,0.669 0.481,0.673 0.478,0.682ZM0.513,0.699C0.51,0.71 0.505,0.718 0.503,0.719C0.5,0.721 0.499,0.716 0.5,0.704C0.502,0.694 0.508,0.686 0.511,0.685C0.511,0.684 0.512,0.684 0.512,0.684C0.515,0.685 0.515,0.691 0.513,0.699ZM0.499,0.704C0.498,0.712 0.495,0.721 0.494,0.722C0.492,0.724 0.49,0.72 0.488,0.711C0.487,0.7 0.49,0.695 0.493,0.693C0.494,0.692 0.495,0.692 0.496,0.692C0.498,0.693 0.5,0.696 0.499,0.704ZM0.485,0.716C0.484,0.722 0.482,0.725 0.48,0.726C0.477,0.728 0.473,0.723 0.467,0.714C0.46,0.703 0.46,0.7 0.467,0.7C0.468,0.7 0.471,0.7 0.474,0.7C0.48,0.701 0.486,0.705 0.485,0.716ZM0.547,0.723C0.547,0.731 0.527,0.741 0.519,0.745C0.504,0.752 0.493,0.758 0.493,0.757C0.497,0.754 0.51,0.74 0.523,0.729C0.534,0.721 0.541,0.719 0.544,0.72C0.546,0.72 0.547,0.722 0.547,0.723ZM0.523,0.719C0.524,0.725 0.515,0.734 0.512,0.736C0.501,0.749 0.493,0.758 0.493,0.757C0.495,0.753 0.496,0.746 0.504,0.732C0.511,0.721 0.519,0.717 0.522,0.718C0.523,0.718 0.523,0.718 0.523,0.719ZM0.476,0.728C0.477,0.729 0.478,0.732 0.48,0.735C0.479,0.733 0.48,0.732 0.481,0.731C0.484,0.731 0.487,0.735 0.488,0.737C0.491,0.746 0.492,0.757 0.492,0.757C0.492,0.757 0.47,0.723 0.468,0.716C0.468,0.716 0.473,0.722 0.476,0.728ZM0.501,0.726C0.501,0.729 0.499,0.737 0.498,0.739C0.495,0.75 0.493,0.758 0.493,0.757C0.493,0.754 0.493,0.75 0.495,0.74C0.497,0.729 0.5,0.725 0.501,0.725C0.501,0.725 0.501,0.725 0.501,0.726ZM0.494,0.729C0.495,0.731 0.494,0.739 0.494,0.74C0.494,0.75 0.493,0.757 0.493,0.757C0.492,0.754 0.492,0.751 0.491,0.742C0.49,0.733 0.492,0.728 0.493,0.729C0.493,0.729 0.493,0.729 0.494,0.729Z" style="fill:url(#_Linear2);fill-rule:nonzero;"/>
        </g>
    </g>
    <defs>
        <linearGradient id="_Linear1" x1="0" y1="0" x2="1" y2="0" gradientUnits="userSpaceOnUse" gradientTransform="matrix(1,0,0,-1,0,5.529e-06)"><stop offset="0" style="stop-color:rgb(237,195,171);stop-opacity:1"/><stop offset="1" style="stop-color:rgb(188,43,11);stop-opacity:1"/></linearGradient>
        <linearGradient id="_Linear2" x1="0" y1="0" x2="1" y2="0" gradientUnits="userSpaceOnUse" gradientTransform="matrix(1,2.77556e-17,2.77556e-17,-1,0,0.0126689)"><stop offset="0" style="stop-color:rgb(188,43,11);stop-opacity:1"/><stop offset="0.49" style="stop-color:rgb(237,195,171);stop-opacity:1"/><stop offset="1" style="stop-color:rgb(188,43,11);stop-opacity:1"/></linearGradient>
    </defs>
</svg>
