<?xml version="1.0" encoding="utf-8"?>
<!-- Generator: Adobe Illustrator 26.3.1, SVG Export Plug-In . SVG Version: 6.00 Build 0)  -->
<svg version="1.1" id="Ebene_1" xmlns="http://www.w3.org/2000/svg" xmlns:xlink="http://www.w3.org/1999/xlink" x="0px" y="0px"
	 viewBox="0 0 907 340" style="enable-background:new 0 0 907 340;" xml:space="preserve">
<style type="text/css">
	.st0{fill:#BC2B0B;}
	.st1{fill:#B1B1B1;}
	.st2{fill:url(#SVGID_1_);}
	.st3{fill:url(#SVGID_00000127741440317928303600000000054150298934169514_);}
</style>
<g>
	<path class="st0" d="M252.8,168.74h-29.66v101.43h38.27V168.74H252.8z"/>
	<g>
		<path class="st1" d="M42.27,168.74H12.61v50.71c0,9.01,2.3,17.55,6.84,25.37c4.57,7.88,10.63,13.93,18.49,18.49
			c7.83,4.56,16.37,6.85,25.38,6.85h134.93v-38.27H63.33c-2.14,0-4.2-0.58-6.1-1.72c-1.94-1.17-3.46-2.68-4.63-4.63
			c-1.14-1.9-1.72-3.95-1.72-6.09v-50.71H42.27z"/>
		<path class="st1" d="M463.33,168.74h-52.64c-8.93,0-17.37,2.22-25.09,6.59c-7.72,4.49-13.94,10.77-18.57,18.75
			c-4.67,7.86-7.06,16.42-7.06,25.37c0,2.41-0.49,4.4-1.51,6.09c-1.08,1.79-2.7,3.34-4.83,4.63c-1.9,1.14-3.96,1.72-6.1,1.72h-61.24
			v38.27h61.24c13.97,0,26-4.95,35.78-14.73c9.91-9.92,14.94-22.02,14.94-35.99c0-2.14,0.58-4.2,1.72-6.1
			c1.17-1.95,2.89-3.67,4.83-4.83c1.75-1.05,3.57-1.52,5.89-1.52h61.25v-38.27H463.33z"/>
		<path class="st1" d="M677.16,168.74H500.12v38.27c0,0,60.25,0,73.67,0c0,12.85,0,63.16,0,63.16h38.28c0,0,0-50.31,0-63.16
			c13.43,0,73.69,0,73.69,0v-38.27H677.16z"/>
		<path class="st1" d="M758.07,168.74c-13.96,0-26.07,5.02-35.99,14.94c-9.77,9.78-14.72,21.81-14.72,35.77
			c0,9.02,2.29,17.56,6.84,25.37c4.57,7.87,10.62,13.93,18.5,18.49c7.81,4.56,16.37,6.85,25.37,6.85h84.21
			c13.96,0,25.99-4.95,35.77-14.73c9.92-9.92,14.96-22.02,14.96-35.99c0-9.01-2.3-17.55-6.85-25.37
			c-4.57-7.87-10.62-13.92-18.5-18.5c-7.82-4.55-16.35-6.84-25.38-6.84H758.07z M751.98,230.17L751.98,230.17
			c-1.95-1.17-3.46-2.68-4.63-4.63c-1.15-1.9-1.72-3.95-1.72-6.09c0-2.14,0.57-4.2,1.72-6.1c1.28-2.14,2.84-3.77,4.63-4.83
			c1.67-1.01,3.72-1.52,6.09-1.52h84.21c1.51,0,3.18,0.36,5.13,1.11c1.43,0.55,2.56,1.29,3.73,2.47c1.18,1.18,1.91,2.3,2.48,3.75
			c0.75,1.94,1.11,3.61,1.11,5.12c0,2.41-0.5,4.4-1.52,6.09c-1.06,1.79-2.69,3.34-4.83,4.63c-1.9,1.14-3.95,1.72-6.09,1.72h-84.21
			C755.94,231.89,753.88,231.31,751.98,230.17z"/>
	</g>
	<g>
		<path class="st0" d="M228.71,327.79c-2.37,0-4.63-0.33-6.39-0.8l0.19-3.55c1.84,0.66,4.3,1.18,6.53,1.18
			c4.12,0,7.57-1.66,7.57-6.01c0-7.57-14.8-4.68-14.8-14.76c0-5.06,4.07-8.85,11.07-8.85c1.99,0,3.83,0.24,5.72,0.61l-0.19,3.26
			c-1.8-0.52-3.93-0.85-5.77-0.85c-4.63,0-7.09,2.18-7.09,5.44c0,7.33,14.8,4.68,14.8,14.66
			C240.35,323.77,235.95,327.79,228.71,327.79z"/>
		<path class="st0" d="M255.86,327.37v-31.93h3.64v31.93H255.86z"/>
		<path class="st0" d="M276.62,327.37v-31.93h3.64v28.85h11.82v3.07H276.62z"/>
		<path class="st0" d="M305.24,327.37v-31.93h3.64v31.93H305.24z"/>
		<path class="st0" d="M343.22,327.37l-13.57-16.03v16.03H326v-31.93h3.64v15.28l13.62-15.28h4.49l-14.19,15.47l14.66,16.46H343.22z
			"/>
		<path class="st0" d="M373.86,327.79c-9.55,0-14.14-6.39-14.14-16.03c0-10.74,6.76-16.74,14.99-16.74c8.65,0,14.1,5.77,14.1,16.03
			C388.81,321.74,382.05,327.79,373.86,327.79z M374.24,298.14c-5.63,0-10.64,4.59-10.64,12.96c0,7.99,3.45,13.53,10.64,13.53
			c5.58,0,10.69-4.54,10.69-13.01C384.93,303.06,381.01,298.14,374.24,298.14z"/>
		<path class="st0" d="M423.95,327.37l-13.29-21.19c-1.42-2.32-2.6-4.44-3.64-6.53c0.14,3.64,0.29,12.39,0.29,17.93v9.79h-3.55
			v-31.93h4.82l13.06,20.72c1.37,2.22,2.7,4.59,3.93,6.81c-0.19-4.26-0.33-12.96-0.33-18.78v-8.75h3.55v31.93H423.95z"/>
		<path class="st0" d="M443.86,317.01v-2.84h10.98v2.84H443.86z"/>
		<path class="st0" d="M477.63,327.51c-1.94,0-4.97-0.09-7.71-0.14v-31.93c2.17-0.05,5.06-0.14,8.89-0.14
			c6.95,0,10.22,2.93,10.22,7.57c0,3.5-2.41,6.53-6.01,7.57v0.1c4.73,0.71,6.76,4.02,6.76,7.43
			C489.79,321.41,487.71,327.51,477.63,327.51z M478.15,298.23c-1.56,0-3.21,0.05-4.59,0.09v11.12c0.99,0.05,1.8,0.05,3.03,0.05
			c5.68,0,8.66-2.22,8.66-6.01C485.25,300.45,483.78,298.23,478.15,298.23z M476.64,312.23c-0.57,0-2.32,0-3.08,0.05v12.01
			c0.85,0.14,2.27,0.28,4.35,0.28c5.63,0,8.09-2.79,8.09-6.53C486,313.56,481.89,312.23,476.64,312.23z"/>
		<path class="st0" d="M505.21,327.37v-31.93h16.08v2.93h-12.44v11.07h11.83v2.93h-11.83v11.97h12.44v3.03H505.21z"/>
		<path class="st0" d="M542.81,327.79c-2.37,0-4.63-0.33-6.39-0.8l0.19-3.55c1.85,0.66,4.31,1.18,6.53,1.18
			c4.11,0,7.57-1.66,7.57-6.01c0-7.57-14.8-4.68-14.8-14.76c0-5.06,4.07-8.85,11.07-8.85c1.99,0,3.83,0.24,5.72,0.61l-0.19,3.26
			c-1.8-0.52-3.93-0.85-5.77-0.85c-4.64,0-7.1,2.18-7.1,5.44c0,7.33,14.8,4.68,14.8,14.66
			C554.44,323.77,550.05,327.79,542.81,327.79z"/>
		<path class="st0" d="M582.4,327.75c-9.89,0-14.42-6.15-14.42-15.61c0-9.6,4.63-16.98,15.51-16.98c2.46,0,5.01,0.38,7.38,0.95
			l-0.38,3.36c-2.65-0.8-5.11-1.23-7.61-1.23c-7.76,0-10.97,6.05-10.97,13.34c0,8.23,3.64,12.96,11.44,12.96
			c2.46,0,5.53-0.71,7.52-1.7l0.38,3.22C588.78,327.08,585.71,327.75,582.4,327.75z"/>
		<path class="st0" d="M627.37,327.37v-15.04h-17.36v15.04h-3.64v-31.93h3.64v13.86h17.36v-13.86h3.59v31.93H627.37z"/>
		<path class="st0" d="M648.09,327.37v-31.93h3.64v31.93H648.09z"/>
		<path class="st0" d="M681.29,327.75c-9.89,0-14.42-6.15-14.42-15.61c0-9.6,4.63-16.98,15.51-16.98c2.46,0,5.02,0.38,7.38,0.95
			l-0.38,3.36c-2.65-0.8-5.11-1.23-7.61-1.23c-7.76,0-10.97,6.05-10.97,13.34c0,8.23,3.64,12.96,11.45,12.96
			c2.46,0,5.53-0.71,7.52-1.7l0.38,3.22C687.68,327.08,684.61,327.75,681.29,327.75z"/>
		<path class="st0" d="M726.27,327.37v-15.04h-17.36v15.04h-3.64v-31.93h3.64v13.86h17.36v-13.86h3.6v31.93H726.27z"/>
		<path class="st0" d="M756.73,298.47v28.9h-3.59v-28.9h-9.55v-3.03h22.75v3.03H756.73z"/>
		<path class="st0" d="M791.83,327.79c-9.89,0-11.78-5.53-11.78-11.02v-21.33h3.64v21c0,4.59,1.52,8.37,8.42,8.37
			c5.87,0,8.75-2.46,8.75-9.27v-20.1h3.55v19.82C804.41,323.44,800.11,327.79,791.83,327.79z"/>
		<path class="st0" d="M841.72,327.37l-13.29-21.19c-1.42-2.32-2.6-4.44-3.64-6.53c0.14,3.64,0.29,12.39,0.29,17.93v9.79h-3.55
			v-31.93h4.82l13.06,20.72c1.37,2.22,2.7,4.59,3.93,6.81c-0.19-4.26-0.33-12.96-0.33-18.78v-8.75h3.55v31.93H841.72z"/>
		<path class="st0" d="M886.66,299.79c-2.7-1.09-5.67-1.7-8.51-1.7c-6.72,0-12.77,4.35-12.77,13.43c0,8.42,5.02,13.15,12.49,13.15
			c2.32,0,4.3-0.33,6.2-0.95v-12.44h3.64v14.71c-3.22,1.18-7.05,1.8-10.4,1.8c-9.46,0-15.75-5.86-15.75-15.8
			c0-9.7,6.39-16.98,16.98-16.98c2.98,0,5.82,0.47,8.7,1.37L886.66,299.79z"/>
	</g>
	<g>
		<g>
			
				<linearGradient id="SVGID_1_" gradientUnits="userSpaceOnUse" x1="227.023" y1="-4.6468" x2="331.7798" y2="-4.6468" gradientTransform="matrix(1 0 0 1 47 78)">
				<stop  offset="0" style="stop-color:#EDC3AB"/>
				<stop  offset="1" style="stop-color:#BC2B0B"/>
			</linearGradient>
			<path class="st2" d="M283.91,103.2c-0.7,0.83-5.98,8.14-6.71,9.19c-0.88,1.26-3.17,4.39-3.17,4.39s1.16-1.17,1.73-1.99
				c0.92-1.34,2.11-2.76,2.92-3.92C279.48,109.72,284.63,102.35,283.91,103.2z M288.87,97.12c-0.91,1.06-7.75,10.51-8.7,11.86
				c-1.37,1.95-3.82,5.65-3.82,5.65s1.17-1.3,1.81-2.2c0.9-1.25,2.85-3.96,3.9-5.45C283.11,105.51,289.81,96.02,288.87,97.12z
				 M307.58,83.66c1.59-2.17,7.11-10,8.68-12.02c1.57-2.01,7.54-11.1,7.54-11.1c-0.72,0.92-11.66,15.19-15.8,20.92
				c-4.4,6.1-12.06,15.31-13.57,17.02c-1.14,1.29-4.34,4.76-3.88,4.41c0.46-0.35,2.61-2.52,4.66-4.54
				C298.9,94.77,304.99,87.2,307.58,83.66z M305.71,81.53c1.87-2.62,7.66-11.4,7.66-11.4s-2.29,2.74-3.68,4.39
				c-1.39,1.64-6.69,8.9-9.35,12.75c-2.65,3.84-7.35,10.06-8.86,11.89c-1.51,1.83-5.97,7.58-5.97,7.58
				c1.81-1.65,9.89-11.49,11.7-13.74C299.02,90.74,303.84,84.15,305.71,81.53z M308.67,79.61c1.57-2.28,9.81-14.24,9.81-14.24
				s-7.52,10.01-8.76,11.6c-1.25,1.59-8.32,11.02-10.01,13.25c-1.69,2.24-6.51,8.22-7.6,9.56s-4.74,5.45-4.74,5.45
				c0.84-0.85,6.43-6.51,8.92-9.39C299.32,92.32,307.1,81.89,308.67,79.61z M284.59,105.52c1.09-1.56,4.02-5.24,5.34-7.08
				c1.31-1.83,9.61-13.68,8.44-12.33c-1.13,1.32-9.76,13.13-10.91,14.82c-1.82,2.66-7.01,10.08-7.01,10.08s0.68-0.73,1.81-2.36
				C283.11,107.41,284.16,106.13,284.59,105.52z M285.72,103.04c1.22-1.7,8.92-12.74,7.83-11.48c-1.05,1.23-9.06,12.23-10.13,13.8
				c-1.69,2.48-5.03,7.49-5.03,7.49s1.61-1.99,2.37-3.13C281.76,108.23,284.5,104.76,285.72,103.04z M301.61,85.19
				c1.63-2.25,6.57-9.82,6.57-9.82s-5.67,7.13-7.84,10.25c-2.17,3.11-7.84,11.04-9.89,13.67c-2.05,2.62-6.83,8.93-6.83,8.93
				c2.59-2.32,6.77-7.95,8.58-10.21C294.02,95.74,299.99,87.44,301.61,85.19z M303.24,80.67c0,0-2.95,3.96-4.64,6.16
				c-1.69,2.2-7.05,9.76-8.62,11.71c-1.57,1.95-8.16,11.25-8.16,11.25c3.07-3.3,9.73-12.59,12.02-15.51
				C296.13,91.35,303.24,80.67,303.24,80.67z M317.23,76.71c1.87-2.57,6.81-9.4,8.8-12.14c1.99-2.74,8.86-12.99,8.86-12.99
				s-8.62,11.16-10.67,13.84c-2.05,2.69-10.31,13.11-14.53,18.67c-4.22,5.55-12.42,14.27-12.42,14.27c1.27-0.3,4.82-4.08,7.36-6.52
				C307.16,89.39,315.36,79.27,317.23,76.71z M330.55,78.97c2.47-2.57,6.27-6.4,9.71-10.37c3.44-3.97,12.24-16.05,14.89-19.7
				c2.65-3.66,10.25-14.7,10.25-14.7s-6.03,7.62-8.92,10.98c-2.89,3.35-11.27,13.6-13.8,16.65c-2.53,3.05-11.33,13.36-14.05,16.41
				c-2.71,3.05-12.48,13.97-12.48,13.97S324.52,85.25,330.55,78.97z M347.73,65.06c3.5-4.27,12.42-16.41,14.47-19.21
				c2.05-2.81,9.77-13.85,9.77-13.85s-6.63,7.62-10.25,12.08c-3.62,4.45-13.08,15.55-15.01,17.93c-1.93,2.38-9.59,11.04-13.26,15.25
				c-3.68,4.21-13.14,14.39-13.14,14.39s8.44-6.83,15.19-13.66C338.51,74.94,344.24,69.33,347.73,65.06z M325.85,80.31
				c3.67-3.85,8.68-9.7,10.91-12.5c2.23-2.81,10.91-14.58,13.02-17.51c2.11-2.93,9.16-13.3,9.16-13.3s-15.07,18.55-18.27,22.51
				c-3.19,3.96-12.96,15.79-16.82,20.43C320,84.58,312.1,92.75,312.1,92.75S315.12,91.59,325.85,80.31z M378.78,29.92
				c0,0-11.88,14.08-14.47,17.08c-2.95,3.42-10.25,11.65-14.29,16.6c-3.89,4.76-10.31,11.59-16.16,17.99
				c-2.05,2.25-9.41,10.18-9.41,10.18S332,85.8,340.2,78.05c6.43-6.07,12.03-11.5,22.12-25.25c3.14-4.27,11.15-15.05,10.85-14.58
				C372.03,40.05,378.78,29.92,378.78,29.92z M317.47,83.11c1.95-2.34,8.02-9.7,9.77-12.14c1.75-2.44,8.56-11.59,10.31-14.03
				c1.75-2.44,9.04-13.11,9.1-13.36c0.06-0.24-1.09,1.34-5,6.34c-3.92,5-10.67,13.3-12.9,16.35c-2.23,3.05-11.76,14.52-14.47,17.93
				c-2.71,3.42-9.83,11.04-9.83,11.04C308.12,93.61,314.52,86.65,317.47,83.11z M312.83,85.37c1.69-1.95,10.19-12.87,11.88-15
				c1.69-2.13,7.11-9.88,8.92-12.57c1.81-2.68,7.05-10.31,7.05-10.31s-12.3,15.98-15.37,19.76c-3.08,3.78-10.37,13.24-13.45,16.96
				c-3.07,3.72-10.97,12.32-10.97,12.32C304.51,95.07,311.14,87.32,312.83,85.37z M322.05,81.46c1.99-2.32,7.96-9.82,9.95-12.32
				c1.99-2.5,8.14-11.04,10.43-14.21c2.29-3.17,10.25-14.7,10.25-14.7s-5.36,6.71-7.05,8.9c-1.69,2.2-11.03,13.66-13.56,16.84
				c-2.53,3.17-12.24,14.76-15.07,18.24c-2.83,3.48-8.86,9.76-8.86,9.76s1.33-0.36,4.76-3.17
				C316.32,87.99,320.06,83.78,322.05,81.46z M301.07,93.73c2.05-1.89,8.74-10.31,10.55-12.69c1.81-2.38,8.74-11.96,10.37-14.34
				c1.63-2.37,7.36-10.86,7.36-10.86s-10.01,13.05-12.12,15.92c-2.11,2.87-11.27,14.46-13.5,17.33
				c-2.23,2.87-10.01,11.59-10.01,11.59C295.65,99.77,299.02,95.62,301.07,93.73z"/>
		</g>
	</g>
	<g>
		<g>
			
				<linearGradient id="SVGID_00000085956665837716971380000006201823443906720648_" gradientUnits="userSpaceOnUse" x1="250.9584" y1="21.8812" x2="166.4741" y2="3.0353" gradientTransform="matrix(1 0 0 1 47 78)">
				<stop  offset="0" style="stop-color:#BC2B0B"/>
				<stop  offset="0.4888" style="stop-color:#EDC3AB"/>
				<stop  offset="1" style="stop-color:#BC2B0B"/>
			</linearGradient>
			<path style="fill:url(#SVGID_00000085956665837716971380000006201823443906720648_);" d="M236.56,145.38
				c-1.23-1.09-2.38-1.15-2.93-0.56c-0.59,0.63-0.19,1.94,1.08,2.82c1.19,0.82,2.91,1.35,3.3,0.85
				C238.45,147.92,237.65,146.35,236.56,145.38z M238.39,149.58c-0.14,0.64,1.34,1.91,1.91,2.37c1.13,0.9,2,1.58,1.99,1.57
				c-0.29-0.38-1.12-1.79-2.07-2.95C239.14,149.25,238.46,149.24,238.39,149.58z M240.45,149.72c-0.15,0.46,0.45,1.42,0.58,1.65
				c0.72,1.26,1.27,2.16,1.27,2.14c-0.12-0.46-0.02-1.04-0.49-2.34C241.31,149.82,240.54,149.41,240.45,149.72z M242.2,150.67
				c-0.1,0.24-0.04,0.99-0.03,1.17c0.06,0.98,0.12,1.69,0.12,1.68c0.02-0.31,0.08-0.63,0.14-1.56
				C242.5,150.92,242.27,150.52,242.2,150.67z M242.76,151.08c-0.16,0.17-0.25,0.82-0.27,0.97c-0.14,0.84-0.19,1.46-0.19,1.45
				c0.09-0.26,0.17-0.49,0.43-1.26C243.02,151.39,242.86,150.97,242.76,151.08z M234.35,142.51c0.08-1.23-1.37-2.64-2.88-2.98
				c-1.71-0.38-2.9,0.52-3.17,1.69c-0.29,1.26,0.82,2.67,2.64,2.84C233.32,144.29,234.29,143.44,234.35,142.51z M230.55,136.3
				c-0.78-1.71-3.18-2.25-4.97-1.6c-2.03,0.74-2.77,2.63-2.35,3.88c0.45,1.36,2.51,1.63,4.61,0.81
				C230.15,138.5,231.06,137.41,230.55,136.3z M226.78,130.69c-1.05-1.67-4.4-1.65-6.01-0.66c-2.35,1.44-3.31,3.72-2.73,4.99
				c0.63,1.37,2.95,0.97,5.47-0.41C226.83,132.8,227.47,131.78,226.78,130.69z M223.02,125.2c-1.19-1.34-4.36-1.54-7.01,0.33
				c-2.76,1.96-3.73,4.86-3.15,5.98c0.71,1.37,3.23,0.19,6.26-1.63C223.06,127.5,223.91,126.21,223.02,125.2z M219.41,119.91
				c-1.26-1.54-4.93-1.17-7.84,0.94c-3.4,2.48-4.46,6.28-3.87,7.18c0.94,1.45,3.49-0.42,6.94-2.79
				C219.25,122.08,220.2,120.87,219.41,119.91z M215.77,114.6c-0.71-1.44-5.5-1.1-8.65,1.65c-4.73,4.13-5.05,8.26-4.31,8.69
				c1.22,0.71,3.35-1.3,7.31-4.24C215.49,116.71,216.32,115.75,215.77,114.6z M212.07,109.24c-0.83-1.53-5.55-0.83-9.15,2.3
				c-4.74,4.12-6.27,9.52-5.34,10.06c1.54,0.91,4.87-2.91,9.1-6.33C210.86,111.92,212.68,110.36,212.07,109.24z M208.34,103.88
				c-0.83-1.52-5.67-0.76-10.19,3.47c-4.37,4.08-6.77,10.36-5.58,11.12c1.37,0.87,6.33-4.89,10.45-8.45
				C207.19,106.4,208.94,105,208.34,103.88z M197.24,106.84c3.98-3.8,7.99-6.87,7.4-8.33c-0.65-1.61-6.04-0.4-10.41,3.98
				c-5.5,5.52-7.85,12.18-6.66,12.93C188.94,116.3,193.21,110.69,197.24,106.84z M200.89,93.15c-1.14-1.3-6.35,0.24-10.72,4.62
				c-5.5,5.52-8.82,13.94-7.63,14.7c1.37,0.87,5.36-4.82,9.22-8.95C195.77,99.25,201.93,94.34,200.89,93.15z M197.1,87.75
				c-1.15-1.29-6.23,0.69-10.81,5.32c-5.99,6.07-9.99,15.82-8.76,16.55c1.41,0.83,7.24-7.52,11.57-12.23
				C193.43,92.68,198.15,88.93,197.1,87.75z M193.4,82.5c-1.15-1.3-6.42,1.12-11.21,5.94c-6.87,6.91-10.8,17.99-9.44,18.42
				c1.41,0.45,6.39-7.2,10.97-12.53C187.96,89.4,194.45,83.69,193.4,82.5z M189.74,77.21c-1.15-1.3-6.58,1.64-11.38,6.47
				c-6.87,6.91-11.88,20.23-10.53,20.66c1.41,0.45,8-10.13,12.58-15.46C184.66,83.95,190.79,78.4,189.74,77.21z M186.09,72.18
				c-1.15-1.3-6.35,1.42-11.41,6.83c-8.04,8.58-13.01,22.3-11.66,22.73c1.41,0.45,9.01-12.05,13.46-17.48
				C181.14,78.56,187.13,73.36,186.09,72.18z M182.51,67.05c-1.15-1.3-6.59,1.83-12.14,7.93c-7.91,8.7-13.49,23.8-12.14,24.24
				c1.41,0.44,7.62-10.81,13.86-18.79C178.53,72.21,183.56,68.23,182.51,67.05z M178.93,62.01c-1.15-1.3-7.39,2.89-12.66,8.94
				c-8.84,10.16-14.17,25.47-12.82,25.9c1.41,0.45,8.58-13.04,14.83-21.02C174.71,67.62,179.98,63.19,178.93,62.01z M175.4,57.17
				c-1.15-1.3-7.92,3.57-12.98,9.56c-8.96,10.61-15.14,27.47-13.79,27.9c1.41,0.44,9.81-15.21,16.04-23.38
				C170.89,63.07,176.44,58.35,175.4,57.17z M171.94,52.41c-1.21-1.23-8.82,4.62-13.5,10.41c-9.24,11.42-15.11,26.67-14.39,29.44
				c0.03,0.13,0.88-0.4,1.45-1.62c2.06-4.45,9.24-15.08,13.91-21.71C166.03,59.48,172.86,53.35,171.94,52.41z M168.56,47.65
				c-1.22-1.23-8.96,4.8-14.71,12.12c-8.06,10.27-14.31,29.97-14.31,30.34c0,0.02,0.88-0.04,1.61-1.75
				c2.69-6.35,8.78-15.39,13.54-22.16C161.33,56.76,169.49,48.59,168.56,47.65z M165.19,43.22c-1.22-1.23-8.52,4.23-14.71,12.12
				c-8.06,10.27-15.63,32.32-15.63,32.7c0,0.01,0.6,0,1.25-1.55c2.21-5.32,10.55-18.06,15.23-24.73
				C157.95,52.33,166.11,44.16,165.19,43.22z M161.89,38.79c-0.8-0.97-8.6,4.15-15.07,12.48c-8.01,10.32-16.48,34.24-16.48,34.61
				c0,0.02,0.68-0.31,1.17-1.26c2.89-5.69,11.52-19.78,16.16-26.92C154.62,47,162.73,39.81,161.89,38.79z M158.76,34.52
				c-0.8-0.98-9.56,5.05-16.12,13.79c-7.83,10.45-16.92,35.09-16.92,35.46c0,0.01,0.72-0.53,1.37-1.83
				c2.87-5.8,12.67-21.54,17.2-28.5C151.24,42.73,159.59,35.53,158.76,34.52z M155.58,30.37c-0.11-0.13-12.35,9.94-19.13,18.51
				c-5.18,6.55-15.23,32.78-15.23,33.14c0,0.02,0.59-0.67,1.28-1.87c3.4-5.86,13.5-23.65,16.56-28.06
				C144.57,44.16,155.74,30.57,155.58,30.37z M152.57,26.59c-0.11-0.13-13.62,11.18-20.66,20.17c-5.15,6.58-15.31,32.98-15.31,33.35
				c0,0.01,0.44-0.61,1.16-2c3.2-6.12,13.64-23.55,16.68-27.94C139.95,42.24,152.73,26.79,152.57,26.59z M149.63,22.89
				c-0.11-0.13-13.48,10.98-20.66,19.85c-5.83,7.2-16.8,34.89-16.8,35.26c0,0.08,14.8-25.56,18.49-30.86
				C136.17,39.2,149.8,23.09,149.63,22.89z M240.95,149.09c0.5-0.01,0.56-0.89-0.26-2.48c-0.71-1.36-2.03-1.97-2.61-1.89
				c-0.74,0.1-0.6,1.14,0.36,2.4C239.38,148.35,240.5,149.1,240.95,149.09z M241.71,148.23c0.05,0.92,0.29,1.7,0.45,1.86
				c0.18,0.19,0.42-0.18,0.49-1.2c0.06-0.89-0.27-1.68-0.5-1.87C241.85,146.77,241.66,147.29,241.71,148.23z M241.89,143.12
				c-0.68-0.55-0.88,0.53-0.77,1.46c0.13,1.08,0.75,1.8,1.08,1.83c0.26,0.02,0.47-0.21,0.5-1.22
				C242.73,144.3,242.15,143.33,241.89,143.12z M240.39,140.59c0.24,1.06,1.36,2.01,1.82,1.9c0.25-0.06,0.5-0.17,0.45-1.17
				c-0.04-0.89-0.79-2.03-1.04-2.27C240.95,138.39,239.93,138.5,240.39,140.59z M241.03,134.54c-0.93-0.8-2.19-0.54-1.55,1.51
				c0.35,1.12,1.97,2.5,2.65,2.4c0.35-0.06,0.59-0.26,0.35-1.38C242.28,136.16,241.52,134.96,241.03,134.54z M242.25,132.87
				c-0.25-0.89-1.33-2.49-2.07-3.06c-1.11-0.89-2.45-0.58-1.78,1.39c0.42,1.23,2.89,3.16,3.57,3.05
				C242.33,134.19,242.56,133.97,242.25,132.87z M238.72,124.53c-1.22-0.72-2.53,0.25-1.17,2.15c0.93,1.31,3.44,3.35,4.26,3.19
				c0.35-0.07,0.47-0.3,0.09-1.44C241.61,127.56,240.32,125.48,238.72,124.53z M237.32,119.23c-1.46-0.7-2.59,0.71-0.72,2.61
				c1.13,1.14,3.99,3.59,4.82,3.61c0.47,0.02,0.5-0.32,0.09-1.51C241.21,123.06,239.44,120.25,237.32,119.23z M236.1,113.92
				c-1.82-0.87-2.71,0.47-0.92,2.38c1.1,1.17,5.09,4.67,5.92,4.7c0.47,0.02,0.5-0.7-0.42-2.26
				C240.21,117.94,238.36,115,236.1,113.92z M234.88,108.49c-2.19-1.08-3.16,0.29-0.98,2.41c1.32,1.28,6.03,5.54,6.86,5.57
				c0.47,0.02,0.54-0.81-1.04-3.1C239.19,112.61,237.12,109.6,234.88,108.49z M233.61,102.95c-2.79-1.4-3.56,0.12-0.77,2.67
				c1.93,1.76,6.96,6.33,7.51,6.25c0.46-0.06,0.53-0.75-1.36-3.51C238.47,107.6,235.85,104.08,233.61,102.95z M232.21,97.31
				c-3.35-1.77-3.77,0.11-0.47,2.93c1.98,1.69,7.67,7.11,8.21,7.03c0.47-0.07,0.29-0.99-1.93-4.15
				C237.5,102.37,234.43,98.48,232.21,97.31z M230.94,91.73c-3.72-2.12-4.49-0.38-0.05,3.33c2,1.67,8.08,7.68,8.62,7.61
				c0.46-0.06,0.07-1.22-2.14-4.38C236.85,97.53,233.39,93.12,230.94,91.73z M229.27,85.86c-3.72-2.12-4.47-0.62-0.11,3.19
				c4.13,3.6,9.18,9.13,10.04,8.99c0.46-0.07-0.65-2.11-2.99-5.3C235.68,91.99,231.72,87.25,229.27,85.86z M227.55,79.98
				c-3.72-2.12-4.38-0.52,0.07,3.22c3.66,3.07,10.29,10.43,11.15,10.29c0.46-0.08-1.21-2.76-3.54-5.96
				C234.7,86.79,230.58,81.71,227.55,79.98z M225.83,74.16c-3.72-2.12-4.3-0.63,0.13,3.13c3.69,3.12,11.55,11.88,12.41,11.74
				c0.46-0.07-1.61-3.55-4.4-7.09C233.4,81.22,228.86,75.88,225.83,74.16z M224.48,71.55c7.3,6.43,12.67,13.27,13.53,13.13
				c0.46-0.08-2.22-4.59-5.5-8.45c-0.6-0.7-5.27-6.1-8.3-7.83C220.48,66.29,219.87,67.5,224.48,71.55z M222.78,65.68
				c7.38,6.57,14.06,14.84,14.92,14.7c0.46-0.08-2.44-4.85-6.65-9.82c-0.59-0.7-5.02-5.89-8.41-7.83
				C218.98,60.65,218.38,61.77,222.78,65.68z M221.3,60.02c7.39,6.58,15.25,16.35,16.11,16.21c0.46-0.07-2.83-5.5-7.81-11.22
				c-0.6-0.7-5.16-5.89-8.54-7.83C217.39,55.1,216.91,56.12,221.3,60.02z M219.96,54.61c7.39,6.58,16.41,17.78,17.27,17.64
				c0.46-0.07-3.6-6.62-8.86-12.5c-0.61-0.69-5.37-6.03-8.76-7.96C215.95,49.7,215.56,50.7,219.96,54.61z M218.32,49.02
				c10.59,9.7,17.89,19.52,18.74,19.38c0.46-0.08-3.62-6.73-10.02-13.86c-0.61-0.68-5.44-6.07-8.83-8.01
				C214.55,44.44,214.28,45.32,218.32,49.02z M217.31,44.09c8.97,7.99,18.86,20.79,19.71,20.66c0.46-0.08-4.38-7.83-11.19-15.22
				c-0.62-0.68-5.44-6.07-8.83-8.01C213.34,39.44,213.11,40.35,217.31,44.09z M216.35,39.3c12.22,11.49,19.88,22.22,20.74,22.08
				c0.46-0.07-5.23-8.97-12.4-16.64c-0.63-0.68-5.45-6.07-8.83-8.01C212.39,34.74,212.11,35.31,216.35,39.3z M215.41,34.74
				c12.76,11.96,20.96,23.6,21.82,23.46c0.46-0.07-6.11-10.16-13.28-17.83c-0.63-0.67-5.77-6.24-9.15-8.18
				C211.33,30.21,211.16,30.76,215.41,34.74z M214.66,30.47c13.2,12.34,22.01,24.96,22.87,24.82c0.46-0.07-6.63-10.94-14.39-19.11
				c-0.63-0.66-5.85-6.24-9.23-8.18C210.44,26.02,210.41,26.5,214.66,30.47z M213.24,24.12c-3.47-1.99-3.43-1.49,0.85,2.45
				c13.14,12.06,22.95,26.21,23.81,26.07c0.46-0.07-7.5-12.14-15.45-20.39C221.82,31.58,216.63,26.06,213.24,24.12z M213.74,23.01
				c13.51,12.28,23.82,27.38,24.68,27.24c0.46-0.07-8.2-13.09-16.4-21.53c-0.64-0.66-5.83-6.18-9.21-8.12
				C209.34,18.62,209.43,19.1,213.74,23.01z M243.53,149.68c0.36-0.93,0.14-1.41-0.02-1.6c-0.2-0.25-0.62-0.17-0.74,0.81
				c-0.09,0.72,0.01,1.48,0.12,1.64C243.01,150.7,243.23,150.44,243.53,149.68z M244.42,146.66c0.45-1.08-0.12-1.48-0.35-1.74
				c-0.21-0.24-1.02-0.67-1.1,0.79c-0.04,0.73,0.3,1.62,0.51,1.77C243.74,147.68,244.1,147.42,244.42,146.66z M245.55,149.11
				c-0.31-0.06-1.65-0.41-1.78,1.05c-0.05,0.5,0.04,0.82,0.19,0.93c0.26,0.2,0.64-0.1,1.3-0.74
				C246.1,149.55,246.17,149.25,245.55,149.11z M245.73,148.66c0.29,0.14,0.93-0.08,1.6-0.72c0.84-0.81,1.18-1.17,0.3-1.3
				c-0.72-0.11-2.91-0.94-2.67,0.81C245.09,148.4,245.55,148.57,245.73,148.66z M249.59,144.08c-1.72-0.1-4.07-1.38-3.38,0.73
				c0.3,0.92,0.95,1.28,1.25,1.35c0.32,0.07,1.09,0,1.84-0.67C250.43,144.46,250.94,144.16,249.59,144.08z M251.53,141.42
				c-2.05,0.12-5.18-1.97-4.07,0.73c0.43,1.04,1.48,1.37,1.87,1.43c0.41,0.07,1.14-0.01,2.07-0.78
				C252.83,141.61,253.34,141.3,251.53,141.42z M253.11,138.73c-2.05,0.19-5.8-2.29-4.45,0.49c0.49,1.01,1.86,1.61,2.25,1.68
				c0.41,0.07,1.61,0.03,2.55-0.72C255.3,138.71,255.75,138.48,253.11,138.73z M254.7,136.01c-2.05,0.17-6.52-2.5-4.93,0.2
				c0.78,1.32,2.34,1.91,2.73,1.97c0.9,0.12,2.06,0.07,3-0.67C258.22,135.36,257.6,135.77,254.7,136.01z M256.84,133.38
				c-2.64,0.21-7.52-2.81-5.92-0.11c0.78,1.32,2.9,2.21,3.29,2.26c1.37,0.18,2.82-0.33,3.8-1.04
				C261.54,131.93,258.88,133.21,256.84,133.38z M258.64,130.68c-3.34,0.17-8.2-3.05-6.6-0.35c0.78,1.32,3.05,2.42,3.96,2.5
				c1.9,0.17,3.23-0.42,4.2-1.13C264.15,128.83,261.15,130.55,258.64,130.68z M260.82,128.02c-4.3,0.19-9.34-3.28-7.57-0.56
				c0.84,1.28,3.15,2.4,4.06,2.59c2,0.43,4.2-0.43,5.15-1.16C266.72,125.64,263.32,127.92,260.82,128.02z M262.2,125.4
				c-4.3,0.18-9.54-3.47-7.76-0.76c0.84,1.28,3.39,2.57,4.3,2.74c2.64,0.52,4.75-0.37,5.71-1.08
				C269.6,122.47,265.91,125.25,262.2,125.4z M280.79,107.73c-2.23,0.29-2.49,0.17-4.44,0c-5.83-0.49-13.5-5.24-11.43-3.09
				c1.97,2.05,7.06,4.27,9.83,4.54c1.55,0.15,3.03,0.1,4.35-0.1c-0.08,0.09-0.16,0.2-0.26,0.33c-1.81,0.3-3.36,0.22-3.71,0.2
				c-6.23-0.29-13.85-5.04-11.6-2.81c2.02,2.01,6.59,4.14,9.36,4.33c1.48,0.11,3.37-0.05,5-0.47c-0.08,0.1-0.15,0.21-0.23,0.31
				c-0.65,0.16-1.26,0.28-1.78,0.38c-0.9,0.16-1.99,0.15-2.93,0.1c-5.84-0.26-12.73-5-10.97-2.37c0.83,1.25,5.99,3.87,8.76,4.08
				c2.5,0.18,4.39-0.19,5.91-0.8c-0.1,0.14-0.2,0.28-0.3,0.42c-0.55,0.16-1.15,0.31-1.71,0.44c-1.07,0.25-2.29,0.31-3.38,0.28
				c-5.85-0.15-12.37-4.69-10.61-2.06c0.83,1.24,5.85,3.63,8.1,3.81c2.45,0.19,4.5-0.35,5.98-0.95c-0.13,0.17-0.28,0.38-0.45,0.61
				c-1.57,0.54-3.22,0.83-4.87,0.8c-5.85-0.1-11.77-4.46-10.01-1.84c0.83,1.25,5.21,3.45,7.02,3.61c3.3,0.3,5.13-0.48,6.63-1.2
				c0.15-0.07,0.27-0.13,0.4-0.2c-0.19,0.27-0.38,0.54-0.56,0.8c-0.25,0.11-0.5,0.21-0.74,0.29c-1.45,0.49-3.19,0.84-4.42,0.81
				c-6.25-0.12-11.37-4.2-9.61-1.57c0.83,1.24,4.67,3.26,6.15,3.44c3.07,0.39,5.78-0.63,7.03-1.38c0.24-0.15,0.52-0.3,0.79-0.45
				c-0.24,0.34-0.42,0.6-0.5,0.7c-0.05,0.06-0.1,0.15-0.17,0.24c-0.2,0.09-0.42,0.19-0.64,0.29c-1.31,0.56-3.22,1.08-5.05,1.06
				c-5.75-0.04-10.7-3.97-8.95-1.34c0.83,1.24,4.23,3.1,5.71,3.3c2.76,0.37,5.37-0.51,6.57-1.35c0.5-0.35,0.96-0.64,1.34-0.89
				c-0.29,0.39-0.65,0.87-1.02,1.37c-0.33,0.1-1.27,0.62-2.01,0.82c-1.09,0.3-2.19,0.64-3.64,0.61c-5.08-0.1-9.9-3.73-8.12-1.02
				c0.84,1.29,4.04,2.9,5.47,3.05c2.67,0.29,4.21-0.44,5.46-1.19c0.93-0.56,1.37-0.78,1.92-1.25c0.21-0.18,0.37-0.32,0.51-0.45
				c-0.79,1.09-1.54,2.13-1.7,2.34c-0.34,0.44-3.05,4.21-3.05,4.21s2.28-2.79,2.5-2.99c0.48-0.44-0.45-0.07,0.38-0.52
				c0.21-0.11,0.86-1.01,1.16-1.55c0.17-0.31,1.69-2.5,2.41-3.61c0.08-0.05,0.17-0.11,0.24-0.16c-0.46,0.69-0.96,1.44-0.96,1.44
				s0.72-0.95,1.28-1.67c0.01-0.01,0.02-0.01,0.03-0.02c1.2-0.92,1.08-0.92,0.53-0.67c0.03-0.03,0.06-0.07,0.08-0.09
				c0.52-0.5,0.03-0.17,0.41-0.59c0.03-0.03,0.13-0.17,0.27-0.36c0.17-0.1,0.33-0.2,0.44-0.28c0,0,0,0,0,0
				c-0.61,0.91-1.18,1.81-1.18,1.81s1.18-1.47,1.75-2.25c1.64-1.29,1.34-1.12,0.44-0.68c0.27-0.47,0.08-0.27,0.44-0.52
				c0.22-0.15,0.32-0.27,0.52-0.57c0.24-0.14,0.45-0.28,0.63-0.4c3.34-2.27,1.54-1.22,0.5-0.71c-0.18,0.09-0.37,0.17-0.56,0.25
				c0.12-0.17,0.29-0.41,0.49-0.71c0.77-0.36,1.32-0.6,2.09-1.13c4.61-3.18,0.97-0.83-0.5-0.23c-0.23,0.1-0.53,0.2-0.85,0.29
				c0.11-0.16,0.23-0.32,0.34-0.49c0.08-0.03,0.16-0.07,0.24-0.1c1.25-0.59,2.85-1.4,3.32-1.71c3.6-2.4,1.06-0.79-0.28-0.24
				c-0.83,0.33-1.63,0.58-2.38,0.78c0.08-0.11,0.15-0.22,0.23-0.33c0.44-0.13,0.85-0.27,1.23-0.43c1.41-0.62,2.09-0.84,3.01-1.38
				c3.76-2.18,2.24-1.32,0.12-0.43c-1.11,0.47-1.75,0.65-3.01,0.94c-0.18,0.04-0.36,0.07-0.54,0.1c0.08-0.12,0.15-0.22,0.2-0.31
				c0.96-0.15,1.83-0.39,2.55-0.69c0.76-0.31,1.66-0.63,2.25-0.94c4.44-2.28,2.97-1.6,0.68-0.67
				C283.61,107.22,281.9,107.6,280.79,107.73z M274.19,115.79c-0.13,0.17-0.33,0.45-0.56,0.77c-0.11,0.05-0.22,0.11-0.34,0.16
				c0.03-0.05,0.06-0.1,0.09-0.14c0.09-0.14,0.25-0.38,0.44-0.66c0.17-0.09,0.31-0.16,0.45-0.24
				C274.24,115.72,274.21,115.76,274.19,115.79z M275.02,114.65c-0.16,0.07-0.33,0.13-0.5,0.19c0.15-0.23,0.28-0.44,0.39-0.6
				c0.2-0.09,0.4-0.17,0.58-0.26c0.01,0,0.01-0.01,0.02-0.01C275.33,114.21,275.17,114.44,275.02,114.65z M287.47,105.23
				c-0.9,0.38-2.45,0.75-3.34,0.86c-2.35,0.3-3.18,0.33-5.77,0.04c-7.18-0.81-14-5.46-11.86-3.39c2.85,2.74,7.68,4.49,10.85,4.76
				c2.74,0.23,5.7-0.18,7.62-1.02c0.77-0.33,1.45-0.56,1.93-0.79C289.24,104.56,288.75,104.68,287.47,105.23z M285.94,104.87
				c-2.09,0.18-3.44,0.21-6.01-0.2c-7.15-1.14-14.02-5.7-11.84-3.68c2.81,2.6,7.96,4.65,11.82,5c3.01,0.27,5.27-0.11,7.64-1
				C292.97,102.96,288.07,104.68,285.94,104.87z M288.55,103.71c-2.45,0.21-3.61,0.25-6.39-0.24c-7.72-1.38-14.74-6.12-12.45-4.07
				c2.76,2.46,7.8,4.77,11.97,5.21c3.25,0.34,6.09-0.08,8.6-0.88C293.37,102.75,290.84,103.52,288.55,103.71z M306.24,100.76
				c-2.14,0.52-3.59,0.76-5.85,0.81c-0.06,0-0.11,0-0.16,0c2.8-0.14,6.39-1.01,9.26-2.37c3.07-1.45,3.47-2.13,3.47-2.24
				c0-0.11-0.5,0.12-0.5,0.12s-1.15,0.56-3.33,1.54c-2.19,0.98-5.15,1.87-6.06,2.12c-0.99,0.27-3.14,0.73-4.28,0.79
				c-0.01,0-0.02,0-0.03,0c0.6-0.1,1.3-0.25,2.14-0.45c2.91-0.7,5.26-1.75,6.51-2.5c0.95-0.57,1.79-1.2,1.81-1.33
				c0.01-0.12-0.27-0.04-1.39,0.55c-1.12,0.6-3,1.4-4.85,2.16c-1.97,0.82-4.63,1.47-4.63,1.47c-0.11,0.03-0.23,0.05-0.37,0.08
				c-0.07-0.01-0.15-0.02-0.23-0.04c0.32-0.07,0.7-0.16,1.28-0.35c2.18-0.72,3.54-1.36,4.54-1.9c0.97-0.54,1.91-1.23,2-1.4
				c0.09-0.17-0.93,0.33-2.08,0.96c-1.08,0.59-2.71,1.33-4.05,1.88c-1.14,0.47-1.88,0.7-2.08,0.76c-0.07-0.01-0.13-0.02-0.2-0.03
				c0.82-0.33,1.88-0.83,2.69-1.23c1.1-0.55,2.17-1.34,2.19-1.48c0.01-0.13-0.41,0.14-0.89,0.4c-0.48,0.26-2.12,1.16-3.04,1.6
				c-0.48,0.23-0.99,0.47-1.37,0.64c-0.1-0.02-0.2-0.03-0.3-0.05c1.02-0.51,1.93-1.16,2.13-1.34c0.21-0.18,0.05-0.19-0.17-0.09
				c-0.21,0.11-1.21,0.72-2.02,1.17c-0.12,0.07-0.23,0.13-0.35,0.19c-2.09-0.37-2.96-0.75-5.31-1.5c-7.15-2.3-14.16-7.19-11.86-5.15
				c2.76,2.46,10.11,5.5,13.71,6.31c1.27,0.28,2.23,0.46,3.02,0.58c-0.03,0.02-0.06,0.03-0.09,0.05c-0.21-0.02-0.43-0.05-0.65-0.08
				c-2.23-0.29-3.09-0.46-6.11-1.39c-7.13-2.17-14.14-6.97-11.84-4.92c2.76,2.46,9.64,5.43,13.77,6.14
				c2.41,0.42,3.36,0.49,4.32,0.51c-0.07,0.04-0.13,0.06-0.17,0.09c-0.39,0-0.81-0.01-1.2-0.04c-2.15-0.15-3.54-0.39-6.59-1.22
				c-7.41-2.03-14.28-6.74-11.98-4.7c2.76,2.47,9.16,5.21,13.29,5.88c3.16,0.51,4.32,0.44,6.08,0.28c-0.06,0.03-0.14,0.06-0.21,0.1
				c-0.58,0.04-1.41,0.1-2.31,0.11c-2.29,0.02-3.38-0.15-6.45-0.88c-7.56-1.8-14.52-6.58-12.23-4.53c2.76,2.46,8.86,5.12,13.01,5.65
				c3.26,0.42,5.06,0.32,7.51-0.14c-0.18,0.08-0.37,0.16-0.55,0.24c-0.56,0.09-1.58,0.24-2.61,0.3c-2.51,0.16-4.05-0.06-6.81-0.63
				c-7.82-1.6-14.6-6.31-12.31-4.27c2.76,2.46,8.51,5.01,12.67,5.45c3.26,0.35,5.61,0.08,8.36-0.61c0.14-0.03,0.25-0.06,0.36-0.09
				c-0.47,0.21-0.85,0.37-0.85,0.37c0.14-0.04,0.61-0.22,1.2-0.45c0.54-0.14,0.55-0.15,0.26-0.1c0.22-0.09,0.45-0.18,0.69-0.28
				c0.02,0,0.04-0.01,0.05-0.01c0.11-0.02,0.21-0.04,0.29-0.06c-0.36,0.12-0.64,0.21-0.64,0.21c0.37-0.07,0.6-0.15,1.68-0.48
				c0.04,0,0.08-0.01,0.12-0.01c-0.24,0.07-0.42,0.11-0.42,0.11c0.25-0.03,0.54-0.09,0.83-0.16c0.13-0.02,0.17-0.03,0.14-0.03
				c0.14-0.03,0.28-0.07,0.41-0.1c0.06,0,0.12,0,0.17,0c-0.24,0.04-0.4,0.06-0.4,0.06c0.15,0,0.67-0.02,1.57-0.14
				c0.24,0.01,0.42,0.02,0.56,0.03c0.36,0.02,0.87,0.06,1.55,0.1c0.98,0.06,2.52,0.11,5.53-0.26c4.15-0.5,9.27-2.56,10.94-4.08
				C318.44,95.69,312.87,99.16,306.24,100.76z M294.8,102.09c-0.07,0-0.17,0.01-0.29,0.02c0.09-0.04,0.17-0.07,0.26-0.11
				c0.13-0.01,0.26-0.02,0.37-0.03C295.03,102.01,294.92,102.05,294.8,102.09z M295.5,101.84c-0.11,0-0.22,0-0.34,0
				c0.07-0.03,0.14-0.06,0.2-0.09c0.13,0,0.25,0,0.37,0C295.66,101.79,295.58,101.82,295.5,101.84z M295.94,101.84
				c-0.04,0-0.07,0-0.11,0c0.09-0.03,0.19-0.06,0.29-0.09c0.05,0,0.1,0,0.14,0C296.15,101.79,296.04,101.81,295.94,101.84z
				 M296.19,101.57c-0.1-0.01-0.21-0.02-0.32-0.04c0.03-0.01,0.06-0.03,0.09-0.04c0.1,0.01,0.21,0.03,0.3,0.04
				C296.24,101.55,296.21,101.57,296.19,101.57z M296.69,101.63c-0.04,0-0.09-0.01-0.13-0.02c0.04-0.01,0.07-0.02,0.11-0.04
				c0.05,0.01,0.1,0.01,0.15,0.01C296.78,101.61,296.74,101.62,296.69,101.63z M297.11,101.69c-0.04-0.01-0.08-0.02-0.15-0.03
				c0.03-0.01,0.07-0.02,0.1-0.02c0.03-0.01,0.07-0.01,0.1-0.02c0.09,0.01,0.18,0.01,0.26,0.02
				C297.32,101.65,297.21,101.67,297.11,101.69z M245.29,143.61c0.44-0.96-0.32-1.55-0.54-1.81c-0.21-0.24-1.6-1.28-1.67,0.18
				c-0.04,0.73,0.41,2.14,1.08,2.39C244.46,144.47,244.95,144.36,245.29,143.61z M243.16,138.38c-0.02,0.73,0.8,2.56,1.72,2.81
				c0.31,0.08,0.99,0.13,1.33-0.62c0.44-0.96-0.51-1.69-0.74-1.96C245.27,138.38,243.2,136.63,243.16,138.38z M247.06,137.48
				c0.44-0.96-0.75-1.94-1.02-2.16c-0.55-0.44-3.12-2.88-2.92-0.65c0.06,0.72,1.41,2.97,2.33,3.22
				C245.75,137.98,246.71,138.23,247.06,137.48z M247.98,134.31c0.44-0.96-1.18-1.98-1.45-2.2c-0.55-0.45-3.94-4.19-3.38-1.06
				c0.13,0.72,1.71,3.1,2.89,3.59C246.61,134.88,247.64,135.06,247.98,134.31z M248.82,131.26c0.36-1.02-1.21-2.05-1.89-2.61
				c-1.01-0.81-4.46-4.83-3.9-1.71c0.13,0.72,1.94,3.47,3.41,4.24C247.14,131.55,248.55,132.04,248.82,131.26z M249.75,128.17
				c0.36-1.01-1.65-2.46-2.33-3.01c-1.01-0.81-5.43-5.43-4.46-2.4c0.44,1.38,2.46,3.93,3.82,4.88
				C247.7,128.29,249.47,128.94,249.75,128.17z M247.06,124.14c1.21,0.93,3.3,1.79,3.58,1.02c0.36-1.02-1.89-2.56-3.01-3.62
				c-0.94-0.89-5.87-6.12-4.9-3.09C243.16,119.83,245.66,123.06,247.06,124.14z M247.46,120.65c1.14,1.02,3.74,2.24,4.02,1.46
				c0.36-1.02-2.05-2.85-3.42-3.98c-1.33-1.1-6.51-7.05-5.55-4.03C242.96,115.48,245.77,119.14,247.46,120.65z M252.48,119.14
				c0.28-0.81-2.01-2.56-3.7-4.1c-1.87-1.71-7.48-8.27-6.51-5.25c0.44,1.38,2.85,5,6.07,7.85
				C249.49,118.65,252.21,119.92,252.48,119.14z M253.45,116.13c0-0.86-3.21-3.42-4.82-5.04c-1.85-1.87-7.48-8.47-6.51-5.45
				c0.44,1.38,3,5.38,6.19,8.26C250.55,115.93,253.45,117.07,253.45,116.13z M254.45,113.2c-0.07-0.86-4.22-4.27-5.99-6.1
				c-1.83-1.89-7.52-8.8-6.55-5.77c0.44,1.38,3.8,6.24,7,9.11C251.76,113,254.53,114.18,254.45,113.2z M248.14,102.92
				c-1.83-1.89-7.52-8.8-6.55-5.78c0.44,1.38,4.74,6.99,7.84,9.96c3.01,2.89,5.99,4.39,5.91,3.42
				C255.26,109.66,249.91,104.75,248.14,102.92z M256.42,107.92c-0.07-0.86-5.08-5.46-7.52-7.97c-2.05-2.11-8.36-9.86-7.4-6.83
				c0.44,1.38,5.06,7.64,8.16,10.61C252.68,106.62,256.5,108.89,256.42,107.92z M257.54,105.56c-0.07-0.86-6.19-6.43-8.84-9.35
				c-1.98-2.18-8.36-10.23-7.4-7.2c0.44,1.39,5.34,7.82,8.36,11.06C252.76,103.41,257.63,106.54,257.54,105.56z M258.55,103.12
				c-0.07-0.86-6.91-7.16-9.69-10.37c-1.93-2.23-8.68-10.53-7.72-7.73c0.47,1.37,5.63,8.43,8.64,11.68
				C252.88,100.03,258.63,104.1,258.55,103.12z M250.75,93.97c3.38,3.62,8.88,7.89,8.92,6.87c0.04-0.86-4.82-4.84-10.49-11.3
				c-1.94-2.22-9.04-11.14-8.08-8.34C241.58,82.57,247.59,90.58,250.75,93.97z M241.15,77.5c0.47,1.37,6.93,10.24,10.09,13.63
				c3.38,3.61,9.68,8.66,9.73,7.64c0.03-0.86-5.63-5.74-11.29-12.2C247.73,84.35,240.18,74.69,241.15,77.5z M252.04,88.6
				c3.38,3.62,10.13,9.19,10.17,8.17c0.03-0.86-6.31-6.26-12.06-12.97c-1.92-2.24-10.01-12.69-9.04-9.89
				C241.58,75.29,248.88,85.21,252.04,88.6z M252.64,85.92c3.62,4.07,10.7,10.1,10.93,9.11c0.16-0.69-5.51-5.29-11.25-11.99
				c-1.92-2.24-12.1-15.17-10.93-12.33C241.94,72.05,249.56,82.46,252.64,85.92z M253.4,83.64c3.62,4.07,11.31,10.71,11.54,9.72
				c0.16-0.69-6.59-6.46-12.34-13.17c-1.92-2.24-12.1-15.41-10.93-12.57C242.22,68.96,250.32,80.18,253.4,83.64z M254.33,81.53
				c3.62,4.07,11.67,11.36,11.9,10.37c0.16-0.69-6.19-6.18-11.94-12.89c-1.92-2.24-13.46-17.08-12.3-14.24
				C242.54,66.11,251.25,78.06,254.33,81.53z M255.46,79.74c3.82,4.35,12.11,12.01,12.34,11.02c0.16-0.69-6.47-6.14-12.38-13.29
				c-1.88-2.28-14.15-18.18-12.98-15.34C242.98,63.47,252.4,76.25,255.46,79.74z M248.13,67.18c2.73,3.73,5.96,7.96,8.05,10.44
				c5.06,6.02,13.11,13.27,13.34,12.28c0.02-0.09-0.1-0.3-0.34-0.59c-1.22-1.68-7.73-7.57-13.09-13.89
				c-4.38-5.17-14.27-18.54-13.1-15.7C243.27,60.39,245.48,63.56,248.13,67.18z M256.9,75.71c5.06,6.02,13.92,14.21,14.15,13.22
				c0.16-0.69-6.39-5.82-13.79-14.72c-4.33-5.21-14.71-19.36-13.55-16.51C244.27,59.04,252.82,70.86,256.9,75.71z M236.93,143.18
				c2.63,1.67,3.27,1.64,3.44,1.1c0.12-0.38-0.44-1.64-1.79-2.99c-1.4-1.39-3.08-2.12-3.74-1.52
				C234.13,140.39,235.21,142.09,236.93,143.18z M235.96,138.87c2.31,1.07,3.51,1.69,3.21,0.49c-0.44-1.75-2.85-3.87-4.73-4.7
				c-2.14-0.95-3.03-0.31-2.88,0.86C231.68,136.45,233.78,137.85,235.96,138.87z M233.89,133.7c3.74,1.97,4.52,1.56,3.86,0.36
				c-0.87-1.58-3.35-3.99-5.93-4.94c-2.27-0.84-3.67-0.1-3.48,1.06C228.61,131.73,231.59,132.49,233.89,133.7z M232.69,128.72
				c4.72,2.22,4.14,0.94,3.3-0.26c-1.04-1.47-3.52-3.72-6.65-4.9c-2.27-0.86-4.52-0.14-4.28,1.17
				C225.35,126.4,230.33,127.62,232.69,128.72z M229.51,122.86c3.81,1.45,5.92,2.43,5.42,1.2c-0.67-1.64-4.34-4.98-7.76-6.08
				c-2.73-0.88-5.71-0.37-5.49,1.22C221.92,120.85,226.6,121.76,229.51,122.86z M226.68,117.05c4.52,1.45,7.07,2.79,6.65,1.67
				c-0.68-1.81-3.62-4.64-8.5-6.45c-3.3-1.23-6.97,0.02-6.45,1.44C218.93,115.2,223.28,115.96,226.68,117.05z M224.93,111.48
				c5.36,1.53,6.89,2.66,6.69,1.59c-0.24-1.35-4.04-5.04-9.34-6.67c-4.74-1.46-7.95,0.72-7.27,1.93
				C215.83,109.81,220.98,110.35,224.93,111.48z M221.74,105.44c4.74,1.26,8.34,2.94,8.1,1.85c-0.33-1.48-4.59-5.49-10.27-6.87
				c-5.67-1.39-8.5,1.28-7.94,2.32C212.39,104.14,216.74,104.11,221.74,105.44z M220.37,99.7c4.22,1.13,7.87,2.74,7.62,1.64
				c-0.28-1.2-5.3-5.91-11.51-6.99c-5.52-0.96-9.06,1.53-8.26,2.83C209.14,98.68,214.6,98.16,220.37,99.7z M215.31,93.2
				c5.32,0.67,10.89,3.35,10.77,2.22c-0.15-1.41-5.69-6.12-12.18-7.12c-5.8-0.89-9.97,1.99-9.12,3.25
				C205.64,92.85,208.38,92.32,215.31,93.2z M210.48,87c8.58,0.63,14.27,3.76,13.69,2.32c-0.64-1.59-5.49-5.92-12.42-6.96
				c-6.67-1-11.25,2.27-10.43,3.56C202.04,87.06,206.32,86.69,210.48,87z M210.72,81.28c6.15,0.65,12.04,3.23,11.45,1.89
				c-0.68-1.57-5.99-5.91-12.98-6.85c-7.12-0.95-12.3,2.85-11.29,4.03C199.03,81.67,202.78,80.44,210.72,81.28z M207.29,75.22
				c7.87,0.57,13.57,3.38,12.98,1.93c-0.65-1.58-6.31-5.82-12.92-6.73c-8.3-1.15-14.06,3.43-12.84,4.45
				C195.93,76.08,200.53,74.74,207.29,75.22z M206,69.39c7.69,0.46,12.89,3.1,12.3,1.64c-0.64-1.58-6.63-5.76-13.47-6.59
				c-8.64-1.04-14.7,3.72-13.68,4.94C192.2,70.66,196.79,68.84,206,69.39z M204.1,63.44c8.11,0.64,12.92,3.12,12.33,1.68
				c-0.64-1.59-5.79-5.37-13.5-6.43c-8.58-1.19-16.15,4.11-15.13,5.34C188.85,65.29,196.57,62.85,204.1,63.44z M200.48,57.46
				c9.53,0.31,14.63,3.19,14.05,1.74c-0.65-1.59-6.87-5.8-14.68-6.4c-9.52-0.75-16.46,4.65-15.44,5.88
				C185.47,59.96,192.04,57.19,200.48,57.46z M196.9,51.79c10.64-0.08,16.41,3.12,15.82,1.68c-0.65-1.59-7.66-5.95-15.22-6.34
				c-9.86-0.52-17.29,5.15-16.28,6.37C182.28,54.77,188.82,51.85,196.9,51.79z M195.69,41.66c-10.28-0.75-18.68,5.54-17.7,6.8
				c0.81,1.04,8.59-2.2,16.64-2.28c11.03-0.13,17.05,3.09,16.46,1.65C210.45,46.25,203.59,42.24,195.69,41.66z M175.07,43.62
				c1.6,0.52,8.29-2.44,17.82-2.95c7.68-0.42,17.17,3,16.63,1.79c-0.74-1.65-7.93-5.83-16.19-6.22
				C181.86,35.69,173.06,42.96,175.07,43.62z M172.06,38.83c1.6,0.52,8.52-3.05,18.06-3.42c11.09-0.43,18.39,2.98,17.84,1.77
				c-0.74-1.65-8.35-5.72-16.61-6.1C179.5,30.53,170.04,38.17,172.06,38.83z M169.05,34.13c1.6,0.52,9.96-3.54,19.5-3.91
				c11.09-0.42,18.57,3.13,18.02,1.92c-0.74-1.65-8.57-5.59-16.82-6.01C177.03,25.5,167.03,33.48,169.05,34.13z M166.24,29.65
				c1.6,0.52,9.46-3.93,20.5-4.36c11.09-0.42,19.02,3.32,18.48,2.11c-0.74-1.65-9.05-5.63-17.3-6.01
				C174.71,20.77,164.23,29,166.24,29.65z M163.35,25.28c1.6,0.51,10.67-4.3,21.7-4.72c11.09-0.43,19.71,3.59,19.17,2.38
				c-0.74-1.65-10.01-5.77-18.27-6.07C171.88,16.35,161.78,24.8,163.35,25.28z M160.61,21.17c1.56,0.63,11.03-4.69,22.06-5.03
				c12.87-0.4,21.28,3.92,20.74,2.71c-0.6-1.34-10.55-5.83-18.81-6.13C169.29,12.17,159.4,20.68,160.61,21.17z M158.04,17.2
				c1.23,0.55,10.79-4.81,22.61-5.18c14.11-0.44,22.52,4.29,21.97,3.08c-0.6-1.34-10.58-6.03-19.71-6.34
				C167.6,8.24,156.85,16.68,158.04,17.2z M244.25,151.34c-0.09,0.1-0.25,0.28-0.43,0.49c0.08-0.17,0.05-0.26-0.08-0.3
				c-0.22-0.07-0.58,0.22-0.66,0.35c-0.46,0.71-0.76,1.64-0.75,1.63c0,0,2.56-2.51,2.89-3.06
				C245.22,150.45,244.61,150.92,244.25,151.34z M248.98,146.03c-0.24,0.37-3.56,4.24-3.56,4.24s3.1-3.21,3.38-3.66
				C249.08,146.16,249.23,145.67,248.98,146.03z M261.28,131.33c-0.3,0.28-2.34,3.08-2.64,3.45c-0.24,0.29-1.77,2.29-2.42,3.15
				c0.57-0.86,1.35-2.08,1.15-1.9c-0.29,0.26-2.2,2.87-2.48,3.22c-0.25,0.31-2.06,2.65-2.47,3.19c0.33-0.48,1.01-1.58,0.73-1.32
				c-0.3,0.27-1.36,1.65-1.66,2.01c-0.3,0.36-2.68,3.47-2.68,3.47s2.01-2.3,2.2-2.47c0.42-0.36-0.39-0.06,0.33-0.42
				c0.19-0.1,0.72-0.76,1.03-1.19c0-0.01,0.01-0.01,0.01-0.02c0.22-0.25,1.88-2.15,2.05-2.3c0.4-0.35-0.37-0.06,0.32-0.41
				c0.18-0.09,0.69-0.72,0.98-1.13c0.07-0.09,0.2-0.29,0.37-0.54c0.48-0.55,1.9-2.18,2.07-2.32c0.43-0.37-0.4-0.06,0.34-0.43
				c0.19-0.1,0.73-0.78,1.04-1.21C259.83,133.73,261.59,131.05,261.28,131.33z M266.07,125.27c-0.34,0.33-2.62,3.61-2.96,4.06
				c-0.34,0.43-3.04,4.15-3.04,4.15s2.28-2.75,2.5-2.95c0.48-0.43-0.45-0.07,0.38-0.51c0.21-0.11,0.82-0.91,1.16-1.42
				C264.44,128.09,266.41,124.95,266.07,125.27z"/>
		</g>
	</g>
</g>
</svg>
